<?xml version="1.0" encoding="UTF-8" standalone="no"?><svg xmlns="http://www.w3.org/2000/svg" xmlns:xlink="http://www.w3.org/1999/xlink" clip-rule="evenodd" stroke-miterlimit="10" viewBox="0 0 1024 768"><desc>SVG generated by Keynote</desc><defs></defs><g transform="matrix(1.00, 0.00, -0.00, -1.00, 0.0, 768.0)"><path d="M 0.0 768.0 L 1024.0 768.0 L 1024.0 0.0 L 0.0 0.0 Z M 0.0 768.0 " fill="#FEFFFF"></path><image xlink:href="../../5014311F-277D-40B3-9FA6-91C358529002/assets/870103687BD544C33A145940EA90D1F8.png" width="166.00" height="198.00" transform="matrix(0.40, 0.00, -0.00, -0.40, 106.3, 680.9)"></image><text xml:space="preserve" font-family="Helvetica-Light,Helvetica" font-size="36.0" fill="#000000" transform="matrix(1.00, 0.00, -0.00, -1.00, 91.8, 698.8)">t</text><text xml:space="preserve" font-family="Helvetica-Light,Helvetica" font-size="36.0" fill="#000000" transform="matrix(1.00, 0.00, -0.00, -1.00, 101.8, 698.8)">y</text><text xml:space="preserve" font-family="Helvetica-Light,Helvetica" font-size="36.0" fill="#000000" transform="matrix(1.00, 0.00, -0.00, -1.00, 119.8, 698.8)">p</text><text xml:space="preserve" font-family="Helvetica-Light,Helvetica" font-size="36.0" fill="#000000" transform="matrix(1.00, 0.00, -0.00, -1.00, 141.8, 698.8)">e</text><text xml:space="preserve" font-family="Helvetica-Light,Helvetica" font-size="36.0" fill="#000000" transform="matrix(1.00, 0.00, -0.00, -1.00, 161.8, 698.8)">:</text><text xml:space="preserve" font-family="Helvetica-Light,Helvetica" font-size="36.0" fill="#000000" transform="matrix(1.00, 0.00, -0.00, -1.00, 171.8, 698.8)"> </text><text xml:space="preserve" font-family="Helvetica-Light,Helvetica" font-size="36.0" fill="#000000" transform="matrix(1.00, 0.00, -0.00, -1.00, 181.8, 698.8)">*</text><image xlink:href="../../48A51027-A7C9-408C-8357-FC14D91936F3/assets/3155C7367CE13D4348D1A495307BACD8.png" width="128.00" height="128.00" transform="matrix(1.00, 0.00, -0.00, -1.00, 195.1, 490.2)"></image><path d="M 0.1 0.0 L 710.1 0.0 " fill="none" stroke="#000000" stroke-width="2.00" transform="matrix(0.00, 1.00, 1.00, 0.00, 512.0, 28.9)"></path><image xlink:href="../../6C08C34F-E845-4D58-9B43-921998E7B34D/assets/387D4007C4CDEA185F590557C654DAD2.png" width="128.00" height="128.00" transform="matrix(1.27, 0.00, -0.00, -1.27, 682.0, 507.7)"></image></g></svg>