<?xml version="1.0" encoding="UTF-8" standalone="no"?><svg xmlns="http://www.w3.org/2000/svg" xmlns:xlink="http://www.w3.org/1999/xlink" clip-rule="evenodd" stroke-miterlimit="10" viewBox="0 0 1024 768"><desc>SVG generated by Keynote</desc><defs></defs><g transform="matrix(1.00, 0.00, -0.00, -1.00, 0.0, 768.0)"><path d="M 0.0 768.0 L 1024.0 768.0 L 1024.0 0.0 L 0.0 0.0 Z M 0.0 768.0 " fill="#FEFFFF"></path><image xlink:href="../../5014311F-277D-40B3-9FA6-91C358529002/assets/870103687BD544C33A145940EA90D1F8.png" width="166.00" height="198.00" transform="matrix(0.40, 0.00, -0.00, -0.40, 106.3, 680.9)"></image><text xml:space="preserve" font-family="Helvetica-Light,Helvetica" font-size="36.0" fill="#000000" transform="matrix(1.00, 0.00, -0.00, -1.00, 91.8, 698.8)">t</text><text xml:space="preserve" font-family="Helvetica-Light,Helvetica" font-size="36.0" fill="#000000" transform="matrix(1.00, 0.00, -0.00, -1.00, 101.8, 698.8)">y</text><text xml:space="preserve" font-family="Helvetica-Light,Helvetica" font-size="36.0" fill="#000000" transform="matrix(1.00, 0.00, -0.00, -1.00, 119.8, 698.8)">p</text><text xml:space="preserve" font-family="Helvetica-Light,Helvetica" font-size="36.0" fill="#000000" transform="matrix(1.00, 0.00, -0.00, -1.00, 141.8, 698.8)">e</text><text xml:space="preserve" font-family="Helvetica-Light,Helvetica" font-size="36.0" fill="#000000" transform="matrix(1.00, 0.00, -0.00, -1.00, 161.8, 698.8)">:</text><text xml:space="preserve" font-family="Helvetica-Light,Helvetica" font-size="36.0" fill="#000000" transform="matrix(1.00, 0.00, -0.00, -1.00, 171.8, 698.8)"> </text><text xml:space="preserve" font-family="Helvetica-Light,Helvetica" font-size="36.0" fill="#000000" transform="matrix(1.00, 0.00, -0.00, -1.00, 181.8, 698.8)">*</text><image xlink:href="../../48A51027-A7C9-408C-8357-FC14D91936F3/assets/3155C7367CE13D4348D1A495307BACD8.png" width="128.00" height="128.00" transform="matrix(1.00, 0.00, -0.00, -1.00, 195.1, 490.2)"></image><path d="M 0.1 0.0 L 389.1 0.0 " fill="none" stroke="#000000" stroke-width="2.00" transform="matrix(0.00, 1.00, 1.00, 0.00, 512.0, 349.9)"></path><image xlink:href="../../6C08C34F-E845-4D58-9B43-921998E7B34D/assets/387D4007C4CDEA185F590557C654DAD2.png" width="128.00" height="128.00" transform="matrix(1.27, 0.00, -0.00, -1.27, 682.0, 507.7)"></image><text xml:space="preserve" font-family="Helvetica-Light,Helvetica" font-size="23.0" fill="#000000" transform="matrix(1.00, 0.00, -0.00, -1.00, 403.9, 268.3)">$</text><text xml:space="preserve" font-family="Helvetica-Light,Helvetica" font-size="23.0" fill="#000000" transform="matrix(1.00, 0.00, -0.00, -1.00, 416.7, 268.3)">s</text><text xml:space="preserve" font-family="Helvetica-Light,Helvetica" font-size="23.0" fill="#000000" transform="matrix(1.00, 0.00, -0.00, -1.00, 428.2, 268.3)">c</text><text xml:space="preserve" font-family="Helvetica-Light,Helvetica" font-size="23.0" fill="#000000" transform="matrix(1.00, 0.00, -0.00, -1.00, 441.0, 268.3)">o</text><text xml:space="preserve" font-family="Helvetica-Light,Helvetica" font-size="23.0" fill="#000000" transform="matrix(1.00, 0.00, -0.00, -1.00, 453.7, 268.3)">p</text><text xml:space="preserve" font-family="Helvetica-Light,Helvetica" font-size="23.0" fill="#000000" transform="matrix(1.00, 0.00, -0.00, -1.00, 467.8, 268.3)">e</text><text xml:space="preserve" font-family="Helvetica-Light,Helvetica" font-size="23.0" fill="#000000" transform="matrix(1.00, 0.00, -0.00, -1.00, 480.6, 268.3)">.</text><text xml:space="preserve" font-family="Helvetica-Light,Helvetica" font-size="23.0" fill="#000000" transform="matrix(1.00, 0.00, -0.00, -1.00, 487.0, 268.3)">n</text><text xml:space="preserve" font-family="Helvetica-Light,Helvetica" font-size="23.0" fill="#000000" transform="matrix(1.00, 0.00, -0.00, -1.00, 499.8, 268.3)">o</text><text xml:space="preserve" font-family="Helvetica-Light,Helvetica" font-size="23.0" fill="#000000" transform="matrix(1.00, 0.00, -0.00, -1.00, 512.6, 268.3)">d</text><text xml:space="preserve" font-family="Helvetica-Light,Helvetica" font-size="23.0" fill="#000000" transform="matrix(1.00, 0.00, -0.00, -1.00, 526.6, 268.3)">e</text><text xml:space="preserve" font-family="Helvetica-Light,Helvetica" font-size="23.0" fill="#000000" transform="matrix(1.00, 0.00, -0.00, -1.00, 539.4, 268.3)"> </text><text xml:space="preserve" font-family="Helvetica-Light,Helvetica" font-size="23.0" fill="#000000" transform="matrix(1.00, 0.00, -0.00, -1.00, 545.8, 268.3)">=</text><text xml:space="preserve" font-family="Helvetica-Light,Helvetica" font-size="23.0" fill="#000000" transform="matrix(1.00, 0.00, -0.00, -1.00, 561.0, 268.3)"> </text><text xml:space="preserve" font-family="Helvetica-Light,Helvetica" font-size="23.0" fill="#000000" transform="matrix(1.00, 0.00, -0.00, -1.00, 567.4, 268.3)">{</text><text xml:space="preserve" font-family="Helvetica-Light,Helvetica" font-size="23.0" fill="#000000" transform="matrix(1.00, 0.00, -0.00, -1.00, 575.0, 268.3)"> </text><text xml:space="preserve" font-family="Helvetica-Light,Helvetica" font-size="23.0" fill="#000000" transform="matrix(1.00, 0.00, -0.00, -1.00, 403.9, 240.3)"> </text><text xml:space="preserve" font-family="Helvetica-Light,Helvetica" font-size="23.0" fill="#000000" transform="matrix(1.00, 0.00, -0.00, -1.00, 449.9, 240.3)">t</text><text xml:space="preserve" font-family="Helvetica-Light,Helvetica" font-size="23.0" fill="#000000" transform="matrix(1.00, 0.00, -0.00, -1.00, 456.3, 240.3)">y</text><text xml:space="preserve" font-family="Helvetica-Light,Helvetica" font-size="23.0" fill="#000000" transform="matrix(1.00, 0.00, -0.00, -1.00, 467.8, 240.3)">p</text><text xml:space="preserve" font-family="Helvetica-Light,Helvetica" font-size="23.0" fill="#000000" transform="matrix(1.00, 0.00, -0.00, -1.00, 481.8, 240.3)">e</text><text xml:space="preserve" font-family="Helvetica-Light,Helvetica" font-size="23.0" fill="#000000" transform="matrix(1.00, 0.00, -0.00, -1.00, 494.6, 240.3)">:</text><text xml:space="preserve" font-family="Helvetica-Light,Helvetica" font-size="23.0" fill="#000000" transform="matrix(1.00, 0.00, -0.00, -1.00, 501.0, 240.3)"> </text><text xml:space="preserve" font-family="Helvetica-Light,Helvetica" font-size="23.0" fill="#000000" transform="matrix(1.00, 0.00, -0.00, -1.00, 507.4, 240.3)">‘</text><text xml:space="preserve" font-family="Helvetica-Light,Helvetica" font-size="23.0" fill="#000000" transform="matrix(1.00, 0.00, -0.00, -1.00, 512.5, 240.3)">p</text><text xml:space="preserve" font-family="Helvetica-Light,Helvetica" font-size="23.0" fill="#000000" transform="matrix(1.00, 0.00, -0.00, -1.00, 526.6, 240.3)">e</text><text xml:space="preserve" font-family="Helvetica-Light,Helvetica" font-size="23.0" fill="#000000" transform="matrix(1.00, 0.00, -0.00, -1.00, 539.4, 240.3)">r</text><text xml:space="preserve" font-family="Helvetica-Light,Helvetica" font-size="23.0" fill="#000000" transform="matrix(1.00, 0.00, -0.00, -1.00, 547.0, 240.3)">s</text><text xml:space="preserve" font-family="Helvetica-Light,Helvetica" font-size="23.0" fill="#000000" transform="matrix(1.00, 0.00, -0.00, -1.00, 558.5, 240.3)">o</text><text xml:space="preserve" font-family="Helvetica-Light,Helvetica" font-size="23.0" fill="#000000" transform="matrix(1.00, 0.00, -0.00, -1.00, 571.3, 240.3)">n</text><text xml:space="preserve" font-family="Helvetica-Light,Helvetica" font-size="23.0" fill="#000000" transform="matrix(1.00, 0.00, -0.00, -1.00, 584.1, 240.3)">’</text><text xml:space="preserve" font-family="Helvetica-Light,Helvetica" font-size="23.0" fill="#000000" transform="matrix(1.00, 0.00, -0.00, -1.00, 589.2, 240.3)">,</text><text xml:space="preserve" font-family="Helvetica-Light,Helvetica" font-size="23.0" fill="#000000" transform="matrix(1.00, 0.00, -0.00, -1.00, 595.6, 240.3)"> </text><text xml:space="preserve" font-family="Helvetica-Light,Helvetica" font-size="23.0" fill="#000000" transform="matrix(1.00, 0.00, -0.00, -1.00, 403.9, 212.3)"> </text><text xml:space="preserve" font-family="Helvetica-Light,Helvetica" font-size="23.0" fill="#000000" transform="matrix(1.00, 0.00, -0.00, -1.00, 449.9, 212.3)">ﬁ</text><text xml:space="preserve" font-family="Helvetica-Light,Helvetica" font-size="23.0" fill="#000000" transform="matrix(1.00, 0.00, -0.00, -1.00, 461.4, 212.3)">e</text><text xml:space="preserve" font-family="Helvetica-Light,Helvetica" font-size="23.0" fill="#000000" transform="matrix(1.00, 0.00, -0.00, -1.00, 474.2, 212.3)">l</text><text xml:space="preserve" font-family="Helvetica-Light,Helvetica" font-size="23.0" fill="#000000" transform="matrix(1.00, 0.00, -0.00, -1.00, 479.3, 212.3)">d</text><text xml:space="preserve" font-family="Helvetica-Light,Helvetica" font-size="23.0" fill="#000000" transform="matrix(1.00, 0.00, -0.00, -1.00, 493.3, 212.3)">s</text><text xml:space="preserve" font-family="Helvetica-Light,Helvetica" font-size="23.0" fill="#000000" transform="matrix(1.00, 0.00, -0.00, -1.00, 504.8, 212.3)">:</text><text xml:space="preserve" font-family="Helvetica-Light,Helvetica" font-size="23.0" fill="#000000" transform="matrix(1.00, 0.00, -0.00, -1.00, 511.2, 212.3)"> </text><text xml:space="preserve" font-family="Helvetica-Light,Helvetica" font-size="23.0" fill="#000000" transform="matrix(1.00, 0.00, -0.00, -1.00, 517.6, 212.3)">{</text><text xml:space="preserve" font-family="Helvetica-Light,Helvetica" font-size="23.0" fill="#000000" transform="matrix(1.00, 0.00, -0.00, -1.00, 525.3, 212.3)"> </text><text xml:space="preserve" font-family="Helvetica-Light,Helvetica" font-size="23.0" fill="#000000" transform="matrix(1.00, 0.00, -0.00, -1.00, 403.9, 184.3)"> </text><text xml:space="preserve" font-family="Helvetica-Light,Helvetica" font-size="23.0" fill="#000000" transform="matrix(1.00, 0.00, -0.00, -1.00, 449.9, 184.3)"> </text><text xml:space="preserve" font-family="Helvetica-Light,Helvetica" font-size="23.0" fill="#000000" transform="matrix(1.00, 0.00, -0.00, -1.00, 456.3, 184.3)"> </text><text xml:space="preserve" font-family="Helvetica-Light,Helvetica" font-size="23.0" fill="#000000" transform="matrix(1.00, 0.00, -0.00, -1.00, 462.7, 184.3)"> </text><text xml:space="preserve" font-family="Helvetica-Light,Helvetica" font-size="23.0" fill="#000000" transform="matrix(1.00, 0.00, -0.00, -1.00, 469.1, 184.3)"> </text><text xml:space="preserve" font-family="Helvetica-Light,Helvetica" font-size="23.0" fill="#000000" transform="matrix(1.00, 0.00, -0.00, -1.00, 475.5, 184.3)">ﬁ</text><text xml:space="preserve" font-family="Helvetica-Light,Helvetica" font-size="23.0" fill="#000000" transform="matrix(1.00, 0.00, -0.00, -1.00, 487.0, 184.3)">r</text><text xml:space="preserve" font-family="Helvetica-Light,Helvetica" font-size="23.0" fill="#000000" transform="matrix(1.00, 0.00, -0.00, -1.00, 494.6, 184.3)">s</text><text xml:space="preserve" font-family="Helvetica-Light,Helvetica" font-size="23.0" fill="#000000" transform="matrix(1.00, 0.00, -0.00, -1.00, 506.1, 184.3)">t</text><text xml:space="preserve" font-family="Helvetica-Light,Helvetica" font-size="23.0" fill="#000000" transform="matrix(1.00, 0.00, -0.00, -1.00, 512.5, 184.3)">N</text><text xml:space="preserve" font-family="Helvetica-Light,Helvetica" font-size="23.0" fill="#000000" transform="matrix(1.00, 0.00, -0.00, -1.00, 529.1, 184.3)">a</text><text xml:space="preserve" font-family="Helvetica-Light,Helvetica" font-size="23.0" fill="#000000" transform="matrix(1.00, 0.00, -0.00, -1.00, 541.9, 184.3)">m</text><text xml:space="preserve" font-family="Helvetica-Light,Helvetica" font-size="23.0" fill="#000000" transform="matrix(1.00, 0.00, -0.00, -1.00, 561.1, 184.3)">e</text><text xml:space="preserve" font-family="Helvetica-Light,Helvetica" font-size="23.0" fill="#000000" transform="matrix(1.00, 0.00, -0.00, -1.00, 573.9, 184.3)">:</text><text xml:space="preserve" font-family="Helvetica-Light,Helvetica" font-size="23.0" fill="#000000" transform="matrix(1.00, 0.00, -0.00, -1.00, 580.2, 184.3)"> </text><text xml:space="preserve" font-family="Helvetica-Light,Helvetica" font-size="23.0" fill="#000000" transform="matrix(1.00, 0.00, -0.00, -1.00, 586.6, 184.3)">‘</text><text xml:space="preserve" font-family="Helvetica-Light,Helvetica" font-size="23.0" fill="#000000" transform="matrix(1.00, 0.00, -0.00, -1.00, 591.7, 184.3)">’</text><text xml:space="preserve" font-family="Helvetica-Light,Helvetica" font-size="23.0" fill="#000000" transform="matrix(1.00, 0.00, -0.00, -1.00, 596.9, 184.3)">,</text><text xml:space="preserve" font-family="Helvetica-Light,Helvetica" font-size="23.0" fill="#000000" transform="matrix(1.00, 0.00, -0.00, -1.00, 603.2, 184.3)"> </text><text xml:space="preserve" font-family="Helvetica-Light,Helvetica" font-size="23.0" fill="#000000" transform="matrix(1.00, 0.00, -0.00, -1.00, 403.9, 156.3)"> </text><text xml:space="preserve" font-family="Helvetica-Light,Helvetica" font-size="23.0" fill="#000000" transform="matrix(1.00, 0.00, -0.00, -1.00, 410.3, 156.3)"> </text><text xml:space="preserve" font-family="Helvetica-Light,Helvetica" font-size="23.0" fill="#000000" transform="matrix(1.00, 0.00, -0.00, -1.00, 416.7, 156.3)"> </text><text xml:space="preserve" font-family="Helvetica-Light,Helvetica" font-size="23.0" fill="#000000" transform="matrix(1.00, 0.00, -0.00, -1.00, 423.1, 156.3)"> </text><text xml:space="preserve" font-family="Helvetica-Light,Helvetica" font-size="23.0" fill="#000000" transform="matrix(1.00, 0.00, -0.00, -1.00, 429.5, 156.3)"> </text><text xml:space="preserve" font-family="Helvetica-Light,Helvetica" font-size="23.0" fill="#000000" transform="matrix(1.00, 0.00, -0.00, -1.00, 435.9, 156.3)"> </text><text xml:space="preserve" font-family="Helvetica-Light,Helvetica" font-size="23.0" fill="#000000" transform="matrix(1.00, 0.00, -0.00, -1.00, 442.2, 156.3)"> </text><text xml:space="preserve" font-family="Helvetica-Light,Helvetica" font-size="23.0" fill="#000000" transform="matrix(1.00, 0.00, -0.00, -1.00, 448.6, 156.3)"> </text><text xml:space="preserve" font-family="Helvetica-Light,Helvetica" font-size="23.0" fill="#000000" transform="matrix(1.00, 0.00, -0.00, -1.00, 455.0, 156.3)"> </text><text xml:space="preserve" font-family="Helvetica-Light,Helvetica" font-size="23.0" fill="#000000" transform="matrix(1.00, 0.00, -0.00, -1.00, 461.4, 156.3)"> </text><text xml:space="preserve" font-family="Helvetica-Light,Helvetica" font-size="23.0" fill="#000000" transform="matrix(1.00, 0.00, -0.00, -1.00, 467.8, 156.3)"> </text><text xml:space="preserve" font-family="Helvetica-Light,Helvetica" font-size="23.0" fill="#000000" transform="matrix(1.00, 0.00, -0.00, -1.00, 474.2, 156.3)">l</text><text xml:space="preserve" font-family="Helvetica-Light,Helvetica" font-size="23.0" fill="#000000" transform="matrix(1.00, 0.00, -0.00, -1.00, 479.3, 156.3)">a</text><text xml:space="preserve" font-family="Helvetica-Light,Helvetica" font-size="23.0" fill="#000000" transform="matrix(1.00, 0.00, -0.00, -1.00, 492.1, 156.3)">s</text><text xml:space="preserve" font-family="Helvetica-Light,Helvetica" font-size="23.0" fill="#000000" transform="matrix(1.00, 0.00, -0.00, -1.00, 503.6, 156.3)">t</text><text xml:space="preserve" font-family="Helvetica-Light,Helvetica" font-size="23.0" fill="#000000" transform="matrix(1.00, 0.00, -0.00, -1.00, 510.0, 156.3)">N</text><text xml:space="preserve" font-family="Helvetica-Light,Helvetica" font-size="23.0" fill="#000000" transform="matrix(1.00, 0.00, -0.00, -1.00, 526.6, 156.3)">a</text><text xml:space="preserve" font-family="Helvetica-Light,Helvetica" font-size="23.0" fill="#000000" transform="matrix(1.00, 0.00, -0.00, -1.00, 539.4, 156.3)">m</text><text xml:space="preserve" font-family="Helvetica-Light,Helvetica" font-size="23.0" fill="#000000" transform="matrix(1.00, 0.00, -0.00, -1.00, 558.6, 156.3)">e</text><text xml:space="preserve" font-family="Helvetica-Light,Helvetica" font-size="23.0" fill="#000000" transform="matrix(1.00, 0.00, -0.00, -1.00, 571.3, 156.3)">:</text><text xml:space="preserve" font-family="Helvetica-Light,Helvetica" font-size="23.0" fill="#000000" transform="matrix(1.00, 0.00, -0.00, -1.00, 577.7, 156.3)"> </text><text xml:space="preserve" font-family="Helvetica-Light,Helvetica" font-size="23.0" fill="#000000" transform="matrix(1.00, 0.00, -0.00, -1.00, 584.1, 156.3)">‘</text><text xml:space="preserve" font-family="Helvetica-Light,Helvetica" font-size="23.0" fill="#000000" transform="matrix(1.00, 0.00, -0.00, -1.00, 589.2, 156.3)">’</text><text xml:space="preserve" font-family="Helvetica-Light,Helvetica" font-size="23.0" fill="#000000" transform="matrix(1.00, 0.00, -0.00, -1.00, 594.3, 156.3)"> </text><text xml:space="preserve" font-family="Helvetica-Light,Helvetica" font-size="23.0" fill="#000000" transform="matrix(1.00, 0.00, -0.00, -1.00, 403.9, 128.3)"> </text><text xml:space="preserve" font-family="Helvetica-Light,Helvetica" font-size="23.0" fill="#000000" transform="matrix(1.00, 0.00, -0.00, -1.00, 449.9, 128.3)">}</text><text xml:space="preserve" font-family="Helvetica-Light,Helvetica" font-size="23.0" fill="#000000" transform="matrix(1.00, 0.00, -0.00, -1.00, 457.5, 128.3)">;</text><text xml:space="preserve" font-family="Helvetica-Light,Helvetica" font-size="23.0" fill="#000000" transform="matrix(1.00, 0.00, -0.00, -1.00, 463.9, 128.3)"> </text><text xml:space="preserve" font-family="Helvetica-Light,Helvetica" font-size="23.0" fill="#000000" transform="matrix(1.00, 0.00, -0.00, -1.00, 403.9, 100.3)">}</text></g></svg>