<?xml version="1.0" encoding="UTF-8" standalone="no"?><svg xmlns="http://www.w3.org/2000/svg" xmlns:xlink="http://www.w3.org/1999/xlink" clip-rule="evenodd" stroke-miterlimit="10" viewBox="0 0 1024 768"><desc>SVG generated by Keynote</desc><defs></defs><g transform="matrix(1.00, 0.00, -0.00, -1.00, 0.0, 768.0)"><path d="M 0.0 768.0 L 1024.0 768.0 L 1024.0 0.0 L 0.0 0.0 Z M 0.0 768.0 " fill="#FEFFFF"></path><image xlink:href="../../03E37AD1-D50C-43DC-91E8-24D929EF19D6/assets/B85023AF020B1317B32F013B1C23A02D.png" width="1061.00" height="753.00" transform="matrix(0.22, 0.00, -0.00, -0.22, 745.2, 727.0)"></image><image xlink:href="../../C5A6DF44-2D30-4D80-B63A-31844EDCFED0/assets/8F4BA8F6E0CB80237EB9306218BE5C46.jpeg" width="2200.00" height="1600.00" transform="matrix(0.04, 0.00, -0.00, -0.04, 818.0, 676.2)"></image><image xlink:href="../../03E37AD1-D50C-43DC-91E8-24D929EF19D6/assets/B85023AF020B1317B32F013B1C23A02D.png" width="1061.00" height="753.00" transform="matrix(0.22, 0.00, -0.00, -0.22, 745.2, 567.2)"></image><image xlink:href="../../C5A6DF44-2D30-4D80-B63A-31844EDCFED0/assets/8F4BA8F6E0CB80237EB9306218BE5C46.jpeg" width="2200.00" height="1600.00" transform="matrix(0.04, 0.00, -0.00, -0.04, 818.0, 516.4)"></image><image xlink:href="../../03E37AD1-D50C-43DC-91E8-24D929EF19D6/assets/B85023AF020B1317B32F013B1C23A02D.png" width="1061.00" height="753.00" transform="matrix(0.22, 0.00, -0.00, -0.22, 745.2, 407.4)"></image><image xlink:href="../../C5A6DF44-2D30-4D80-B63A-31844EDCFED0/assets/8F4BA8F6E0CB80237EB9306218BE5C46.jpeg" width="2200.00" height="1600.00" transform="matrix(0.04, 0.00, -0.00, -0.04, 818.0, 356.6)"></image><image xlink:href="../../03E37AD1-D50C-43DC-91E8-24D929EF19D6/assets/B85023AF020B1317B32F013B1C23A02D.png" width="1061.00" height="753.00" transform="matrix(0.22, 0.00, -0.00, -0.22, 745.2, 247.6)"></image><image xlink:href="../../C5A6DF44-2D30-4D80-B63A-31844EDCFED0/assets/8F4BA8F6E0CB80237EB9306218BE5C46.jpeg" width="2200.00" height="1600.00" transform="matrix(0.04, 0.00, -0.00, -0.04, 818.0, 196.7)"></image><image xlink:href="../../C5A6DF44-2D30-4D80-B63A-31844EDCFED0/assets/73FD1B66DD72EFE3BD9C902251B5B2D6.jpeg" width="512.00" height="384.00" transform="matrix(0.31, 0.00, -0.00, -0.31, 104.0, 476.3)"></image><path d="M 8.6 0.0 L 9.6 0.0 L 500.2 0.0 L 501.2 0.0 " fill="none" stroke="#000000" stroke-width="2.00" transform="matrix(-0.93, -0.37, -0.37, 0.93, 749.1, 655.1)"></path><path d="M 282.1 475.9 L 274.9 467.9 L 285.6 467.0 Z M 282.1 475.9 " fill="#000000"></path><path d="M 741.9 647.1 L 749.1 655.1 L 738.4 656.0 Z M 741.9 647.1 " fill="#000000"></path><path d="M 8.6 0.0 L 9.6 0.0 L 491.9 0.0 L 492.9 0.0 " fill="none" stroke="#000000" stroke-width="2.00" transform="matrix(-0.99, -0.12, -0.12, 0.99, 773.2, 494.3)"></path><path d="M 284.2 440.3 L 275.2 434.4 L 285.4 430.8 Z M 284.2 440.3 " fill="#000000"></path><path d="M 764.2 488.4 L 773.2 494.3 L 763.0 498.0 Z M 764.2 488.4 " fill="#000000"></path><path d="M 8.6 0.0 L 9.6 0.0 L 496.0 0.0 L 497.0 0.0 " fill="none" stroke="#000000" stroke-width="2.00" transform="matrix(-0.98, 0.17, 0.17, 0.98, 773.1, 313.3)"></path><path d="M 285.5 404.3 L 275.3 401.2 L 283.9 394.8 Z M 285.5 404.3 " fill="#000000"></path><path d="M 762.9 310.3 L 773.1 313.3 L 764.5 319.7 Z M 762.9 310.3 " fill="#000000"></path><path d="M 8.6 0.0 L 9.6 0.0 L 512.5 0.0 L 513.5 0.0 " fill="none" stroke="#000000" stroke-width="2.00" transform="matrix(-0.93, 0.37, 0.37, 0.93, 766.4, 165.7)"></path><path d="M 292.7 361.7 L 282.0 360.8 L 289.1 352.7 Z M 292.7 361.7 " fill="#000000"></path><path d="M 755.7 164.8 L 766.4 165.7 L 759.3 173.7 Z M 755.7 164.8 " fill="#000000"></path><image xlink:href="../../C5A6DF44-2D30-4D80-B63A-31844EDCFED0/assets/7D8633F0DEDDD143D41B722C12D68EF5.jpeg" width="446.00" height="584.00" transform="matrix(0.21, 0.00, -0.00, -0.21, 138.4, 603.9)"></image><image xlink:href="../../A1535BFA-7B8F-49BB-9AC9-B4BFCDFACBFD/assets/B7534AD2ED3BD95D195BD6D39152D4A2.jpeg" width="325.00" height="396.00" transform="matrix(0.36, 0.00, -0.00, -0.36, 119.0, 348.6)"></image><image xlink:href="../../EB5AEB41-C57F-41A1-9385-69B479ED5115/assets/DCE87ACBE8186AE729F85ACAE729421E.jpeg" width="1458.00" height="1080.00" transform="matrix(0.13, 0.00, -0.00, -0.13, 87.6, 754.4)"></image><image xlink:href="../../FA51A1AD-F75A-4E11-BDE4-1E598F1CED1B/assets/8932F8505C916632E048D4EB2634220F.jpeg" width="264.00" height="320.00" transform="matrix(0.69, 0.00, -0.00, -0.69, 86.7, 198.2)"></image><image xlink:href="365B1021A7E0048D649597151E856EFB.jpeg" width="213.00" height="264.00" transform="matrix(1.21, 0.00, -0.00, -1.21, 359.0, 585.0)"></image><path d="M 0.0 0.0 L 257.7 0.0 L 257.7 319.4 L 0.0 319.4 Z M 0.0 0.0 " fill="none" stroke="#000000" stroke-width="2.00" transform="matrix(1.00, 0.00, 0.00, -1.00, 359.0, 585.0)"></path></g></svg>