<?xml version="1.0" encoding="UTF-8" standalone="no"?><svg xmlns="http://www.w3.org/2000/svg" xmlns:xlink="http://www.w3.org/1999/xlink" clip-rule="evenodd" stroke-miterlimit="10" viewBox="0 0 1024 768"><desc>SVG generated by Keynote</desc><defs></defs><g transform="matrix(1.00, 0.00, -0.00, -1.00, 0.0, 768.0)"><path d="M 0.0 768.0 L 1024.0 768.0 L 1024.0 0.0 L 0.0 0.0 Z M 0.0 768.0 " fill="#FEFFFF"></path><image xlink:href="../../03E37AD1-D50C-43DC-91E8-24D929EF19D6/assets/B85023AF020B1317B32F013B1C23A02D.png" width="1061.00" height="753.00" transform="matrix(0.22, 0.00, -0.00, -0.22, 393.2, 708.0)"></image><image xlink:href="../../C5A6DF44-2D30-4D80-B63A-31844EDCFED0/assets/8F4BA8F6E0CB80237EB9306218BE5C46.jpeg" width="2200.00" height="1600.00" transform="matrix(0.04, 0.00, -0.00, -0.04, 466.0, 657.2)"></image><image xlink:href="../../03E37AD1-D50C-43DC-91E8-24D929EF19D6/assets/B85023AF020B1317B32F013B1C23A02D.png" width="1061.00" height="753.00" transform="matrix(0.22, 0.00, -0.00, -0.22, 393.2, 548.2)"></image><image xlink:href="../../C5A6DF44-2D30-4D80-B63A-31844EDCFED0/assets/8F4BA8F6E0CB80237EB9306218BE5C46.jpeg" width="2200.00" height="1600.00" transform="matrix(0.04, 0.00, -0.00, -0.04, 466.0, 497.4)"></image><image xlink:href="../../03E37AD1-D50C-43DC-91E8-24D929EF19D6/assets/B85023AF020B1317B32F013B1C23A02D.png" width="1061.00" height="753.00" transform="matrix(0.22, 0.00, -0.00, -0.22, 393.2, 388.4)"></image><image xlink:href="../../C5A6DF44-2D30-4D80-B63A-31844EDCFED0/assets/8F4BA8F6E0CB80237EB9306218BE5C46.jpeg" width="2200.00" height="1600.00" transform="matrix(0.04, 0.00, -0.00, -0.04, 466.0, 337.6)"></image><image xlink:href="../../03E37AD1-D50C-43DC-91E8-24D929EF19D6/assets/B85023AF020B1317B32F013B1C23A02D.png" width="1061.00" height="753.00" transform="matrix(0.22, 0.00, -0.00, -0.22, 393.2, 228.6)"></image><image xlink:href="../../C5A6DF44-2D30-4D80-B63A-31844EDCFED0/assets/8F4BA8F6E0CB80237EB9306218BE5C46.jpeg" width="2200.00" height="1600.00" transform="matrix(0.04, 0.00, -0.00, -0.04, 466.0, 177.7)"></image><image xlink:href="../../C5A6DF44-2D30-4D80-B63A-31844EDCFED0/assets/73FD1B66DD72EFE3BD9C902251B5B2D6.jpeg" width="512.00" height="384.00" transform="matrix(0.31, 0.00, -0.00, -0.31, 82.0, 444.3)"></image><path d="M 0.0 0.0 L 227.8 0.0 L 228.8 0.0 " fill="none" stroke="#000000" stroke-width="2.00" transform="matrix(-0.71, -0.71, -0.71, 0.71, 420.8, 625.1)"></path><path d="M 256.3 467.4 L 252.9 457.3 L 263.1 460.6 Z M 256.3 467.4 " fill="#000000"></path><path d="M 0.0 0.0 L 170.2 0.0 L 171.2 0.0 " fill="none" stroke="#000000" stroke-width="2.00" transform="matrix(-0.93, -0.36, -0.36, 0.93, 420.8, 467.6)"></path><path d="M 260.5 410.3 L 253.2 402.4 L 263.9 401.4 Z M 260.5 410.3 " fill="#000000"></path><path d="M 0.0 0.0 L 170.1 0.0 L 171.1 0.0 " fill="none" stroke="#000000" stroke-width="2.00" transform="matrix(-0.93, 0.36, 0.36, 0.93, 420.8, 304.1)"></path><path d="M 263.9 370.2 L 253.3 369.2 L 260.5 361.3 Z M 263.9 370.2 " fill="#000000"></path><path d="M 0.0 0.0 L 227.8 0.0 L 228.8 0.0 " fill="none" stroke="#000000" stroke-width="2.00" transform="matrix(-0.71, 0.71, 0.71, 0.71, 420.8, 141.1)"></path><path d="M 263.1 305.6 L 252.9 309.0 L 256.3 298.8 Z M 263.1 305.6 " fill="#000000"></path><image xlink:href="../../C5A6DF44-2D30-4D80-B63A-31844EDCFED0/assets/7D8633F0DEDDD143D41B722C12D68EF5.jpeg" width="446.00" height="584.00" transform="matrix(0.21, 0.00, -0.00, -0.21, 116.4, 571.9)"></image><image xlink:href="../../A1535BFA-7B8F-49BB-9AC9-B4BFCDFACBFD/assets/B7534AD2ED3BD95D195BD6D39152D4A2.jpeg" width="325.00" height="396.00" transform="matrix(0.36, 0.00, -0.00, -0.36, 97.0, 316.6)"></image><image xlink:href="../../EB5AEB41-C57F-41A1-9385-69B479ED5115/assets/DCE87ACBE8186AE729F85ACAE729421E.jpeg" width="1458.00" height="1080.00" transform="matrix(0.13, 0.00, -0.00, -0.13, 65.6, 722.4)"></image><image xlink:href="../../FA51A1AD-F75A-4E11-BDE4-1E598F1CED1B/assets/8932F8505C916632E048D4EB2634220F.jpeg" width="264.00" height="320.00" transform="matrix(0.69, 0.00, -0.00, -0.69, 64.7, 166.2)"></image></g></svg>