<?xml version="1.0" encoding="UTF-8" standalone="no"?><svg xmlns="http://www.w3.org/2000/svg" xmlns:xlink="http://www.w3.org/1999/xlink" clip-rule="evenodd" stroke-miterlimit="10" viewBox="0 0 1024 768"><desc>SVG generated by Keynote</desc><defs></defs><g transform="matrix(1.00, 0.00, -0.00, -1.00, 0.0, 768.0)"><path d="M 0.0 768.0 L 1024.0 768.0 L 1024.0 0.0 L 0.0 0.0 Z M 0.0 768.0 " fill="#FEFFFF"></path><image xlink:href="../../5014311F-277D-40B3-9FA6-91C358529002/assets/870103687BD544C33A145940EA90D1F8.png" width="166.00" height="198.00" transform="matrix(0.40, 0.00, -0.00, -0.40, 109.3, 565.0)"></image><image xlink:href="../../5014311F-277D-40B3-9FA6-91C358529002/assets/870103687BD544C33A145940EA90D1F8.png" width="166.00" height="198.00" transform="matrix(0.40, 0.00, -0.00, -0.40, 109.3, 401.0)"></image><image xlink:href="../../5014311F-277D-40B3-9FA6-91C358529002/assets/870103687BD544C33A145940EA90D1F8.png" width="166.00" height="198.00" transform="matrix(0.40, 0.00, -0.00, -0.40, 308.3, 304.0)"></image><image xlink:href="../../5014311F-277D-40B3-9FA6-91C358529002/assets/870103687BD544C33A145940EA90D1F8.png" width="166.00" height="198.00" transform="matrix(0.40, 0.00, -0.00, -0.40, 308.3, 658.0)"></image><image xlink:href="../../5014311F-277D-40B3-9FA6-91C358529002/assets/870103687BD544C33A145940EA90D1F8.png" width="166.00" height="198.00" transform="matrix(0.40, 0.00, -0.00, -0.40, 308.3, 493.0)"></image><image xlink:href="../../5014311F-277D-40B3-9FA6-91C358529002/assets/870103687BD544C33A145940EA90D1F8.png" width="166.00" height="198.00" transform="matrix(0.40, 0.00, -0.00, -0.40, 109.3, 223.0)"></image><image xlink:href="../../5014311F-277D-40B3-9FA6-91C358529002/assets/870103687BD544C33A145940EA90D1F8.png" width="166.00" height="198.00" transform="matrix(0.40, 0.00, -0.00, -0.40, 519.3, 216.0)"></image><image xlink:href="../../5014311F-277D-40B3-9FA6-91C358529002/assets/870103687BD544C33A145940EA90D1F8.png" width="166.00" height="198.00" transform="matrix(0.40, 0.00, -0.00, -0.40, 519.3, 570.0)"></image><image xlink:href="../../5014311F-277D-40B3-9FA6-91C358529002/assets/870103687BD544C33A145940EA90D1F8.png" width="166.00" height="198.00" transform="matrix(0.40, 0.00, -0.00, -0.40, 519.3, 405.0)"></image><image xlink:href="../../5014311F-277D-40B3-9FA6-91C358529002/assets/870103687BD544C33A145940EA90D1F8.png" width="166.00" height="198.00" transform="matrix(0.40, 0.00, -0.00, -0.40, 730.3, 292.0)"></image><image xlink:href="../../5014311F-277D-40B3-9FA6-91C358529002/assets/870103687BD544C33A145940EA90D1F8.png" width="166.00" height="198.00" transform="matrix(0.40, 0.00, -0.00, -0.40, 730.3, 646.0)"></image><image xlink:href="../../5014311F-277D-40B3-9FA6-91C358529002/assets/870103687BD544C33A145940EA90D1F8.png" width="166.00" height="198.00" transform="matrix(0.40, 0.00, -0.00, -0.40, 730.3, 481.0)"></image><image xlink:href="../../5014311F-277D-40B3-9FA6-91C358529002/assets/870103687BD544C33A145940EA90D1F8.png" width="166.00" height="198.00" transform="matrix(0.40, 0.00, -0.00, -0.40, 912.3, 207.0)"></image><image xlink:href="../../5014311F-277D-40B3-9FA6-91C358529002/assets/870103687BD544C33A145940EA90D1F8.png" width="166.00" height="198.00" transform="matrix(0.40, 0.00, -0.00, -0.40, 912.3, 561.0)"></image><image xlink:href="../../5014311F-277D-40B3-9FA6-91C358529002/assets/870103687BD544C33A145940EA90D1F8.png" width="166.00" height="198.00" transform="matrix(0.40, 0.00, -0.00, -0.40, 912.3, 396.0)"></image></g></svg>