<?xml version="1.0" encoding="UTF-8" standalone="no"?><svg xmlns="http://www.w3.org/2000/svg" xmlns:xlink="http://www.w3.org/1999/xlink" clip-rule="evenodd" stroke-miterlimit="10" viewBox="0 0 1024 768"><desc>SVG generated by Keynote</desc><defs></defs><g transform="matrix(1.00, 0.00, -0.00, -1.00, 0.0, 768.0)"><path d="M 0.0 768.0 L 1024.0 768.0 L 1024.0 0.0 L 0.0 0.0 Z M 0.0 768.0 " fill="#FEFFFF"></path><image xlink:href="../../48A51027-A7C9-408C-8357-FC14D91936F3/assets/71EFC10EAF94B4B978ED9C2BC652EB6B.png" width="128.00" height="128.00" transform="matrix(1.00, 0.00, -0.00, -1.00, 169.3, 448.0)"></image><text xml:space="preserve" font-family="Helvetica-Light,Helvetica" font-size="12.0" fill="#000000" transform="matrix(1.00, 0.00, -0.00, -1.00, 316.5, 533.4)">•</text><text xml:space="preserve" font-family="Helvetica-Light,Helvetica" font-size="16.0" fill="#000000" transform="matrix(1.00, 0.00, -0.00, -1.00, 351.5, 531.8)">_</text><text xml:space="preserve" font-family="Helvetica-Light,Helvetica" font-size="16.0" fill="#000000" transform="matrix(1.00, 0.00, -0.00, -1.00, 359.5, 531.8)">i</text><text xml:space="preserve" font-family="Helvetica-Light,Helvetica" font-size="16.0" fill="#000000" transform="matrix(1.00, 0.00, -0.00, -1.00, 363.0, 531.8)">d</text><text xml:space="preserve" font-family="Helvetica-Light,Helvetica" font-size="16.0" fill="#000000" transform="matrix(1.00, 0.00, -0.00, -1.00, 372.8, 531.8)"> </text><text xml:space="preserve" font-family="Helvetica-Light,Helvetica" font-size="12.0" fill="#000000" transform="matrix(1.00, 0.00, -0.00, -1.00, 316.5, 489.5)">•</text><text xml:space="preserve" font-family="Helvetica-Light,Helvetica" font-size="16.0" fill="#000000" transform="matrix(1.00, 0.00, -0.00, -1.00, 351.5, 487.9)">ﬁ</text><text xml:space="preserve" font-family="Helvetica-Light,Helvetica" font-size="16.0" fill="#000000" transform="matrix(1.00, 0.00, -0.00, -1.00, 359.5, 487.9)">r</text><text xml:space="preserve" font-family="Helvetica-Light,Helvetica" font-size="16.0" fill="#000000" transform="matrix(1.00, 0.00, -0.00, -1.00, 364.8, 487.9)">s</text><text xml:space="preserve" font-family="Helvetica-Light,Helvetica" font-size="16.0" fill="#000000" transform="matrix(1.00, 0.00, -0.00, -1.00, 372.8, 487.9)">t</text><text xml:space="preserve" font-family="Helvetica-Light,Helvetica" font-size="16.0" fill="#000000" transform="matrix(1.00, 0.00, -0.00, -1.00, 377.3, 487.9)">N</text><text xml:space="preserve" font-family="Helvetica-Light,Helvetica" font-size="16.0" fill="#000000" transform="matrix(1.00, 0.00, -0.00, -1.00, 388.8, 487.9)">a</text><text xml:space="preserve" font-family="Helvetica-Light,Helvetica" font-size="16.0" fill="#000000" transform="matrix(1.00, 0.00, -0.00, -1.00, 397.7, 487.9)">m</text><text xml:space="preserve" font-family="Helvetica-Light,Helvetica" font-size="16.0" fill="#000000" transform="matrix(1.00, 0.00, -0.00, -1.00, 411.0, 487.9)">e</text><text xml:space="preserve" font-family="Helvetica-Light,Helvetica" font-size="16.0" fill="#000000" transform="matrix(1.00, 0.00, -0.00, -1.00, 419.9, 487.9)"> </text><text xml:space="preserve" font-family="Helvetica-Light,Helvetica" font-size="12.0" fill="#000000" transform="matrix(1.00, 0.00, -0.00, -1.00, 316.5, 445.6)">•</text><text xml:space="preserve" font-family="Helvetica-Light,Helvetica" font-size="16.0" fill="#000000" transform="matrix(1.00, 0.00, -0.00, -1.00, 351.5, 444.0)">l</text><text xml:space="preserve" font-family="Helvetica-Light,Helvetica" font-size="16.0" fill="#000000" transform="matrix(1.00, 0.00, -0.00, -1.00, 355.0, 444.0)">a</text><text xml:space="preserve" font-family="Helvetica-Light,Helvetica" font-size="16.0" fill="#000000" transform="matrix(1.00, 0.00, -0.00, -1.00, 363.9, 444.0)">s</text><text xml:space="preserve" font-family="Helvetica-Light,Helvetica" font-size="16.0" fill="#000000" transform="matrix(1.00, 0.00, -0.00, -1.00, 371.9, 444.0)">t</text><text xml:space="preserve" font-family="Helvetica-Light,Helvetica" font-size="16.0" fill="#000000" transform="matrix(1.00, 0.00, -0.00, -1.00, 376.4, 444.0)">N</text><text xml:space="preserve" font-family="Helvetica-Light,Helvetica" font-size="16.0" fill="#000000" transform="matrix(1.00, 0.00, -0.00, -1.00, 387.9, 444.0)">a</text><text xml:space="preserve" font-family="Helvetica-Light,Helvetica" font-size="16.0" fill="#000000" transform="matrix(1.00, 0.00, -0.00, -1.00, 396.8, 444.0)">m</text><text xml:space="preserve" font-family="Helvetica-Light,Helvetica" font-size="16.0" fill="#000000" transform="matrix(1.00, 0.00, -0.00, -1.00, 410.1, 444.0)">e</text><text xml:space="preserve" font-family="Helvetica-Light,Helvetica" font-size="16.0" fill="#000000" transform="matrix(1.00, 0.00, -0.00, -1.00, 419.0, 444.0)"> </text><text xml:space="preserve" font-family="Helvetica-Light,Helvetica" font-size="12.0" fill="#000000" transform="matrix(1.00, 0.00, -0.00, -1.00, 316.5, 401.7)">•</text><text xml:space="preserve" font-family="Helvetica-Light,Helvetica" font-size="16.0" fill="#000000" transform="matrix(1.00, 0.00, -0.00, -1.00, 351.5, 400.1)">e</text><text xml:space="preserve" font-family="Helvetica-Light,Helvetica" font-size="16.0" fill="#000000" transform="matrix(1.00, 0.00, -0.00, -1.00, 360.4, 400.1)">m</text><text xml:space="preserve" font-family="Helvetica-Light,Helvetica" font-size="16.0" fill="#000000" transform="matrix(1.00, 0.00, -0.00, -1.00, 373.7, 400.1)">a</text><text xml:space="preserve" font-family="Helvetica-Light,Helvetica" font-size="16.0" fill="#000000" transform="matrix(1.00, 0.00, -0.00, -1.00, 382.6, 400.1)">i</text><text xml:space="preserve" font-family="Helvetica-Light,Helvetica" font-size="16.0" fill="#000000" transform="matrix(1.00, 0.00, -0.00, -1.00, 386.2, 400.1)">l</text><text xml:space="preserve" font-family="Helvetica-Light,Helvetica" font-size="16.0" fill="#000000" transform="matrix(1.00, 0.00, -0.00, -1.00, 389.7, 400.1)"> </text><text xml:space="preserve" font-family="Helvetica-Light,Helvetica" font-size="12.0" fill="#000000" transform="matrix(1.00, 0.00, -0.00, -1.00, 316.5, 357.8)">•</text><text xml:space="preserve" font-family="Helvetica-Light,Helvetica" font-size="16.0" fill="#000000" transform="matrix(1.00, 0.00, -0.00, -1.00, 351.5, 356.2)">p</text><text xml:space="preserve" font-family="Helvetica-Light,Helvetica" font-size="16.0" fill="#000000" transform="matrix(1.00, 0.00, -0.00, -1.00, 361.3, 356.2)">a</text><text xml:space="preserve" font-family="Helvetica-Light,Helvetica" font-size="16.0" fill="#000000" transform="matrix(1.00, 0.00, -0.00, -1.00, 370.2, 356.2)">s</text><text xml:space="preserve" font-family="Helvetica-Light,Helvetica" font-size="16.0" fill="#000000" transform="matrix(1.00, 0.00, -0.00, -1.00, 378.2, 356.2)">s</text><text xml:space="preserve" font-family="Helvetica-Light,Helvetica" font-size="16.0" fill="#000000" transform="matrix(1.00, 0.00, -0.00, -1.00, 386.1, 356.2)">w</text><text xml:space="preserve" font-family="Helvetica-Light,Helvetica" font-size="16.0" fill="#000000" transform="matrix(1.00, 0.00, -0.00, -1.00, 397.7, 356.2)">o</text><text xml:space="preserve" font-family="Helvetica-Light,Helvetica" font-size="16.0" fill="#000000" transform="matrix(1.00, 0.00, -0.00, -1.00, 406.6, 356.2)">r</text><text xml:space="preserve" font-family="Helvetica-Light,Helvetica" font-size="16.0" fill="#000000" transform="matrix(1.00, 0.00, -0.00, -1.00, 411.6, 356.2)">d</text><text xml:space="preserve" font-family="Helvetica-Light,Helvetica" font-size="16.0" fill="#000000" transform="matrix(1.00, 0.00, -0.00, -1.00, 421.4, 356.2)"> </text><text xml:space="preserve" font-family="Helvetica-Light,Helvetica" font-size="12.0" fill="#000000" transform="matrix(1.00, 0.00, -0.00, -1.00, 316.5, 313.9)">•</text><text xml:space="preserve" font-family="Helvetica-Light,Helvetica" font-size="16.0" fill="#000000" transform="matrix(1.00, 0.00, -0.00, -1.00, 351.5, 312.3)">u</text><text xml:space="preserve" font-family="Helvetica-Light,Helvetica" font-size="16.0" fill="#000000" transform="matrix(1.00, 0.00, -0.00, -1.00, 360.4, 312.3)">s</text><text xml:space="preserve" font-family="Helvetica-Light,Helvetica" font-size="16.0" fill="#000000" transform="matrix(1.00, 0.00, -0.00, -1.00, 368.4, 312.3)">e</text><text xml:space="preserve" font-family="Helvetica-Light,Helvetica" font-size="16.0" fill="#000000" transform="matrix(1.00, 0.00, -0.00, -1.00, 377.3, 312.3)">r</text><text xml:space="preserve" font-family="Helvetica-Light,Helvetica" font-size="16.0" fill="#000000" transform="matrix(1.00, 0.00, -0.00, -1.00, 382.9, 312.3)">n</text><text xml:space="preserve" font-family="Helvetica-Light,Helvetica" font-size="16.0" fill="#000000" transform="matrix(1.00, 0.00, -0.00, -1.00, 391.8, 312.3)">a</text><text xml:space="preserve" font-family="Helvetica-Light,Helvetica" font-size="16.0" fill="#000000" transform="matrix(1.00, 0.00, -0.00, -1.00, 400.7, 312.3)">m</text><text xml:space="preserve" font-family="Helvetica-Light,Helvetica" font-size="16.0" fill="#000000" transform="matrix(1.00, 0.00, -0.00, -1.00, 414.0, 312.3)">e</text><text xml:space="preserve" font-family="Helvetica-Light,Helvetica" font-size="16.0" fill="#000000" transform="matrix(1.00, 0.00, -0.00, -1.00, 422.9, 312.3)"> </text><text xml:space="preserve" font-family="Helvetica-Light,Helvetica" font-size="12.0" fill="#000000" transform="matrix(1.00, 0.00, -0.00, -1.00, 316.5, 270.0)">•</text><text xml:space="preserve" font-family="Helvetica-Light,Helvetica" font-size="16.0" fill="#000000" transform="matrix(1.00, 0.00, -0.00, -1.00, 351.5, 268.4)">c</text><text xml:space="preserve" font-family="Helvetica-Light,Helvetica" font-size="16.0" fill="#000000" transform="matrix(1.00, 0.00, -0.00, -1.00, 360.4, 268.4)">r</text><text xml:space="preserve" font-family="Helvetica-Light,Helvetica" font-size="16.0" fill="#000000" transform="matrix(1.00, 0.00, -0.00, -1.00, 365.4, 268.4)">e</text><text xml:space="preserve" font-family="Helvetica-Light,Helvetica" font-size="16.0" fill="#000000" transform="matrix(1.00, 0.00, -0.00, -1.00, 374.3, 268.4)">a</text><text xml:space="preserve" font-family="Helvetica-Light,Helvetica" font-size="16.0" fill="#000000" transform="matrix(1.00, 0.00, -0.00, -1.00, 383.2, 268.4)">t</text><text xml:space="preserve" font-family="Helvetica-Light,Helvetica" font-size="16.0" fill="#000000" transform="matrix(1.00, 0.00, -0.00, -1.00, 387.7, 268.4)">e</text><text xml:space="preserve" font-family="Helvetica-Light,Helvetica" font-size="16.0" fill="#000000" transform="matrix(1.00, 0.00, -0.00, -1.00, 396.6, 268.4)">d</text><text xml:space="preserve" font-family="Helvetica-Light,Helvetica" font-size="16.0" fill="#000000" transform="matrix(1.00, 0.00, -0.00, -1.00, 406.3, 268.4)"> </text><text xml:space="preserve" font-family="Helvetica-Light,Helvetica" font-size="12.0" fill="#000000" transform="matrix(1.00, 0.00, -0.00, -1.00, 316.5, 226.1)">•</text><text xml:space="preserve" font-family="Helvetica-Light,Helvetica" font-size="16.0" fill="#000000" transform="matrix(1.00, 0.00, -0.00, -1.00, 351.5, 224.5)">a</text><text xml:space="preserve" font-family="Helvetica-Light,Helvetica" font-size="16.0" fill="#000000" transform="matrix(1.00, 0.00, -0.00, -1.00, 360.4, 224.5)">v</text><text xml:space="preserve" font-family="Helvetica-Light,Helvetica" font-size="16.0" fill="#000000" transform="matrix(1.00, 0.00, -0.00, -1.00, 368.4, 224.5)">a</text><text xml:space="preserve" font-family="Helvetica-Light,Helvetica" font-size="16.0" fill="#000000" transform="matrix(1.00, 0.00, -0.00, -1.00, 377.3, 224.5)">t</text><text xml:space="preserve" font-family="Helvetica-Light,Helvetica" font-size="16.0" fill="#000000" transform="matrix(1.00, 0.00, -0.00, -1.00, 381.7, 224.5)">a</text><text xml:space="preserve" font-family="Helvetica-Light,Helvetica" font-size="16.0" fill="#000000" transform="matrix(1.00, 0.00, -0.00, -1.00, 390.6, 224.5)">r</text><image xlink:href="../../E62E4490-62E2-4CFC-A7D9-0D9F2EFDA834/assets/F9264B49D38AAD77CCC5321C2EAE2900.png" width="492.00" height="1292.00" transform="matrix(0.50, 0.00, -0.00, -0.50, 637.3, 729.5)"></image></g></svg>