<?xml version="1.0" encoding="UTF-8" standalone="no"?><svg xmlns="http://www.w3.org/2000/svg" xmlns:xlink="http://www.w3.org/1999/xlink" clip-rule="evenodd" stroke-miterlimit="10" viewBox="0 0 1024 768"><desc>SVG generated by Keynote</desc><defs></defs><g transform="matrix(1.00, 0.00, -0.00, -1.00, 0.0, 768.0)"><path d="M 0.0 768.0 L 1024.0 768.0 L 1024.0 0.0 L 0.0 0.0 Z M 0.0 768.0 " fill="#FEFFFF"></path><image xlink:href="../../03E37AD1-D50C-43DC-91E8-24D929EF19D6/assets/B85023AF020B1317B32F013B1C23A02D.png" width="1061.00" height="753.00" transform="matrix(0.22, 0.00, -0.00, -0.22, 393.2, 708.0)"></image><image xlink:href="../../C5A6DF44-2D30-4D80-B63A-31844EDCFED0/assets/8F4BA8F6E0CB80237EB9306218BE5C46.jpeg" width="2200.00" height="1600.00" transform="matrix(0.04, 0.00, -0.00, -0.04, 466.0, 657.2)"></image><image xlink:href="../../03E37AD1-D50C-43DC-91E8-24D929EF19D6/assets/B85023AF020B1317B32F013B1C23A02D.png" width="1061.00" height="753.00" transform="matrix(0.22, 0.00, -0.00, -0.22, 393.2, 548.2)"></image><image xlink:href="../../C5A6DF44-2D30-4D80-B63A-31844EDCFED0/assets/8F4BA8F6E0CB80237EB9306218BE5C46.jpeg" width="2200.00" height="1600.00" transform="matrix(0.04, 0.00, -0.00, -0.04, 466.0, 497.4)"></image><image xlink:href="../../03E37AD1-D50C-43DC-91E8-24D929EF19D6/assets/B85023AF020B1317B32F013B1C23A02D.png" width="1061.00" height="753.00" transform="matrix(0.22, 0.00, -0.00, -0.22, 393.2, 388.4)"></image><image xlink:href="../../C5A6DF44-2D30-4D80-B63A-31844EDCFED0/assets/8F4BA8F6E0CB80237EB9306218BE5C46.jpeg" width="2200.00" height="1600.00" transform="matrix(0.04, 0.00, -0.00, -0.04, 466.0, 337.6)"></image><image xlink:href="../../03E37AD1-D50C-43DC-91E8-24D929EF19D6/assets/B85023AF020B1317B32F013B1C23A02D.png" width="1061.00" height="753.00" transform="matrix(0.22, 0.00, -0.00, -0.22, 393.2, 228.6)"></image><image xlink:href="../../C5A6DF44-2D30-4D80-B63A-31844EDCFED0/assets/8F4BA8F6E0CB80237EB9306218BE5C46.jpeg" width="2200.00" height="1600.00" transform="matrix(0.04, 0.00, -0.00, -0.04, 466.0, 177.7)"></image><image xlink:href="../../C5A6DF44-2D30-4D80-B63A-31844EDCFED0/assets/7D8633F0DEDDD143D41B722C12D68EF5.jpeg" width="446.00" height="584.00" transform="matrix(0.21, 0.00, -0.00, -0.21, 76.8, 706.9)"></image><image xlink:href="../../C5A6DF44-2D30-4D80-B63A-31844EDCFED0/assets/73FD1B66DD72EFE3BD9C902251B5B2D6.jpeg" width="512.00" height="384.00" transform="matrix(0.31, 0.00, -0.00, -0.31, 809.0, 204.5)"></image></g></svg>