<?xml version="1.0" encoding="UTF-8" standalone="no"?><svg xmlns="http://www.w3.org/2000/svg" xmlns:xlink="http://www.w3.org/1999/xlink" clip-rule="evenodd" stroke-miterlimit="10" viewBox="0 0 1024 768"><desc>SVG generated by Keynote</desc><defs></defs><g transform="matrix(1.00, 0.00, -0.00, -1.00, 0.0, 768.0)"><path d="M 0.0 768.0 L 1024.0 768.0 L 1024.0 0.0 L 0.0 0.0 Z M 0.0 768.0 " fill="#FEFFFF"></path><image xlink:href="../../5014311F-277D-40B3-9FA6-91C358529002/assets/870103687BD544C33A145940EA90D1F8.png" width="166.00" height="198.00" transform="matrix(0.40, 0.00, -0.00, -0.40, 106.3, 680.9)"></image><text xml:space="preserve" font-family="Helvetica-Light,Helvetica" font-size="36.0" fill="#000000" transform="matrix(1.00, 0.00, -0.00, -1.00, 91.8, 698.8)">t</text><text xml:space="preserve" font-family="Helvetica-Light,Helvetica" font-size="36.0" fill="#000000" transform="matrix(1.00, 0.00, -0.00, -1.00, 101.8, 698.8)">y</text><text xml:space="preserve" font-family="Helvetica-Light,Helvetica" font-size="36.0" fill="#000000" transform="matrix(1.00, 0.00, -0.00, -1.00, 119.8, 698.8)">p</text><text xml:space="preserve" font-family="Helvetica-Light,Helvetica" font-size="36.0" fill="#000000" transform="matrix(1.00, 0.00, -0.00, -1.00, 141.8, 698.8)">e</text><text xml:space="preserve" font-family="Helvetica-Light,Helvetica" font-size="36.0" fill="#000000" transform="matrix(1.00, 0.00, -0.00, -1.00, 161.8, 698.8)">:</text><text xml:space="preserve" font-family="Helvetica-Light,Helvetica" font-size="36.0" fill="#000000" transform="matrix(1.00, 0.00, -0.00, -1.00, 171.8, 698.8)"> </text><text xml:space="preserve" font-family="Helvetica-Light,Helvetica" font-size="36.0" fill="#000000" transform="matrix(1.00, 0.00, -0.00, -1.00, 181.8, 698.8)">*</text><image xlink:href="../../48A51027-A7C9-408C-8357-FC14D91936F3/assets/3155C7367CE13D4348D1A495307BACD8.png" width="128.00" height="128.00" transform="matrix(1.00, 0.00, -0.00, -1.00, 195.1, 490.2)"></image><path d="M 0.4 0.0 L 409.4 0.0 " fill="none" stroke="#000000" stroke-width="2.00" transform="matrix(0.00, 1.00, 1.00, 0.00, 512.0, 329.6)"></path><image xlink:href="../../6C08C34F-E845-4D58-9B43-921998E7B34D/assets/387D4007C4CDEA185F590557C654DAD2.png" width="128.00" height="128.00" transform="matrix(1.27, 0.00, -0.00, -1.27, 682.0, 507.7)"></image><text xml:space="preserve" font-family="Helvetica-Light,Helvetica" font-size="23.0" fill="#000000" transform="matrix(1.00, 0.00, -0.00, -1.00, 126.1, 260.3)">$</text><text xml:space="preserve" font-family="Helvetica-Light,Helvetica" font-size="23.0" fill="#000000" transform="matrix(1.00, 0.00, -0.00, -1.00, 138.9, 260.3)">s</text><text xml:space="preserve" font-family="Helvetica-Light,Helvetica" font-size="23.0" fill="#000000" transform="matrix(1.00, 0.00, -0.00, -1.00, 150.4, 260.3)">c</text><text xml:space="preserve" font-family="Helvetica-Light,Helvetica" font-size="23.0" fill="#000000" transform="matrix(1.00, 0.00, -0.00, -1.00, 163.2, 260.3)">o</text><text xml:space="preserve" font-family="Helvetica-Light,Helvetica" font-size="23.0" fill="#000000" transform="matrix(1.00, 0.00, -0.00, -1.00, 175.9, 260.3)">p</text><text xml:space="preserve" font-family="Helvetica-Light,Helvetica" font-size="23.0" fill="#000000" transform="matrix(1.00, 0.00, -0.00, -1.00, 190.0, 260.3)">e</text><text xml:space="preserve" font-family="Helvetica-Light,Helvetica" font-size="23.0" fill="#000000" transform="matrix(1.00, 0.00, -0.00, -1.00, 202.8, 260.3)">.</text><text xml:space="preserve" font-family="Helvetica-Light,Helvetica" font-size="23.0" fill="#000000" transform="matrix(1.00, 0.00, -0.00, -1.00, 209.2, 260.3)">n</text><text xml:space="preserve" font-family="Helvetica-Light,Helvetica" font-size="23.0" fill="#000000" transform="matrix(1.00, 0.00, -0.00, -1.00, 222.0, 260.3)">o</text><text xml:space="preserve" font-family="Helvetica-Light,Helvetica" font-size="23.0" fill="#000000" transform="matrix(1.00, 0.00, -0.00, -1.00, 234.8, 260.3)">d</text><text xml:space="preserve" font-family="Helvetica-Light,Helvetica" font-size="23.0" fill="#000000" transform="matrix(1.00, 0.00, -0.00, -1.00, 248.8, 260.3)">e</text><text xml:space="preserve" font-family="Helvetica-Light,Helvetica" font-size="23.0" fill="#000000" transform="matrix(1.00, 0.00, -0.00, -1.00, 261.6, 260.3)">T</text><text xml:space="preserve" font-family="Helvetica-Light,Helvetica" font-size="23.0" fill="#000000" transform="matrix(1.00, 0.00, -0.00, -1.00, 272.4, 260.3)">y</text><text xml:space="preserve" font-family="Helvetica-Light,Helvetica" font-size="23.0" fill="#000000" transform="matrix(1.00, 0.00, -0.00, -1.00, 283.9, 260.3)">p</text><text xml:space="preserve" font-family="Helvetica-Light,Helvetica" font-size="23.0" fill="#000000" transform="matrix(1.00, 0.00, -0.00, -1.00, 298.0, 260.3)">e</text><text xml:space="preserve" font-family="Helvetica-Light,Helvetica" font-size="23.0" fill="#000000" transform="matrix(1.00, 0.00, -0.00, -1.00, 310.8, 260.3)">s</text><text xml:space="preserve" font-family="Helvetica-Light,Helvetica" font-size="23.0" fill="#000000" transform="matrix(1.00, 0.00, -0.00, -1.00, 322.3, 260.3)"> </text><text xml:space="preserve" font-family="Helvetica-Light,Helvetica" font-size="23.0" fill="#000000" transform="matrix(1.00, 0.00, -0.00, -1.00, 328.7, 260.3)">=</text><text xml:space="preserve" font-family="Helvetica-Light,Helvetica" font-size="23.0" fill="#000000" transform="matrix(1.00, 0.00, -0.00, -1.00, 343.9, 260.3)"> </text><text xml:space="preserve" font-family="Helvetica-Light,Helvetica" font-size="23.0" fill="#000000" transform="matrix(1.00, 0.00, -0.00, -1.00, 350.3, 260.3)">{</text><text xml:space="preserve" font-family="Helvetica-Light,Helvetica" font-size="23.0" fill="#000000" transform="matrix(1.00, 0.00, -0.00, -1.00, 357.9, 260.3)"> </text><text xml:space="preserve" font-family="Helvetica-Light,Helvetica" font-size="23.0" fill="#000000" transform="matrix(1.00, 0.00, -0.00, -1.00, 126.1, 232.3)"> </text><text xml:space="preserve" font-family="Helvetica-Light,Helvetica" font-size="23.0" fill="#000000" transform="matrix(1.00, 0.00, -0.00, -1.00, 172.1, 232.3)">p</text><text xml:space="preserve" font-family="Helvetica-Light,Helvetica" font-size="23.0" fill="#000000" transform="matrix(1.00, 0.00, -0.00, -1.00, 186.1, 232.3)">e</text><text xml:space="preserve" font-family="Helvetica-Light,Helvetica" font-size="23.0" fill="#000000" transform="matrix(1.00, 0.00, -0.00, -1.00, 198.9, 232.3)">r</text><text xml:space="preserve" font-family="Helvetica-Light,Helvetica" font-size="23.0" fill="#000000" transform="matrix(1.00, 0.00, -0.00, -1.00, 206.6, 232.3)">s</text><text xml:space="preserve" font-family="Helvetica-Light,Helvetica" font-size="23.0" fill="#000000" transform="matrix(1.00, 0.00, -0.00, -1.00, 218.1, 232.3)">o</text><text xml:space="preserve" font-family="Helvetica-Light,Helvetica" font-size="23.0" fill="#000000" transform="matrix(1.00, 0.00, -0.00, -1.00, 230.9, 232.3)">n</text><text xml:space="preserve" font-family="Helvetica-Light,Helvetica" font-size="23.0" fill="#000000" transform="matrix(1.00, 0.00, -0.00, -1.00, 243.7, 232.3)">:</text><text xml:space="preserve" font-family="Helvetica-Light,Helvetica" font-size="23.0" fill="#000000" transform="matrix(1.00, 0.00, -0.00, -1.00, 250.0, 232.3)"> </text><text xml:space="preserve" font-family="Helvetica-Light,Helvetica" font-size="23.0" fill="#000000" transform="matrix(1.00, 0.00, -0.00, -1.00, 256.4, 232.3)">{</text><text xml:space="preserve" font-family="Helvetica-Light,Helvetica" font-size="23.0" fill="#000000" transform="matrix(1.00, 0.00, -0.00, -1.00, 264.1, 232.3)"> </text><text xml:space="preserve" font-family="Helvetica-Light,Helvetica" font-size="23.0" fill="#000000" transform="matrix(1.00, 0.00, -0.00, -1.00, 126.1, 204.3)"> </text><text xml:space="preserve" font-family="Helvetica-Light,Helvetica" font-size="23.0" fill="#000000" transform="matrix(1.00, 0.00, -0.00, -1.00, 172.1, 204.3)"> </text><text xml:space="preserve" font-family="Helvetica-Light,Helvetica" font-size="23.0" fill="#000000" transform="matrix(1.00, 0.00, -0.00, -1.00, 178.5, 204.3)"> </text><text xml:space="preserve" font-family="Helvetica-Light,Helvetica" font-size="23.0" fill="#000000" transform="matrix(1.00, 0.00, -0.00, -1.00, 184.9, 204.3)"> </text><text xml:space="preserve" font-family="Helvetica-Light,Helvetica" font-size="23.0" fill="#000000" transform="matrix(1.00, 0.00, -0.00, -1.00, 191.3, 204.3)">ﬁ</text><text xml:space="preserve" font-family="Helvetica-Light,Helvetica" font-size="23.0" fill="#000000" transform="matrix(1.00, 0.00, -0.00, -1.00, 202.8, 204.3)">e</text><text xml:space="preserve" font-family="Helvetica-Light,Helvetica" font-size="23.0" fill="#000000" transform="matrix(1.00, 0.00, -0.00, -1.00, 215.5, 204.3)">l</text><text xml:space="preserve" font-family="Helvetica-Light,Helvetica" font-size="23.0" fill="#000000" transform="matrix(1.00, 0.00, -0.00, -1.00, 220.7, 204.3)">d</text><text xml:space="preserve" font-family="Helvetica-Light,Helvetica" font-size="23.0" fill="#000000" transform="matrix(1.00, 0.00, -0.00, -1.00, 234.7, 204.3)">s</text><text xml:space="preserve" font-family="Helvetica-Light,Helvetica" font-size="23.0" fill="#000000" transform="matrix(1.00, 0.00, -0.00, -1.00, 246.2, 204.3)">:</text><text xml:space="preserve" font-family="Helvetica-Light,Helvetica" font-size="23.0" fill="#000000" transform="matrix(1.00, 0.00, -0.00, -1.00, 252.6, 204.3)"> </text><text xml:space="preserve" font-family="Helvetica-Light,Helvetica" font-size="23.0" fill="#000000" transform="matrix(1.00, 0.00, -0.00, -1.00, 259.0, 204.3)">[</text><text xml:space="preserve" font-family="Helvetica-Light,Helvetica" font-size="23.0" fill="#000000" transform="matrix(1.00, 0.00, -0.00, -1.00, 266.7, 204.3)"> </text><text xml:space="preserve" font-family="Helvetica-Light,Helvetica" font-size="23.0" fill="#000000" transform="matrix(1.00, 0.00, -0.00, -1.00, 126.1, 176.3)"> </text><text xml:space="preserve" font-family="Helvetica-Light,Helvetica" font-size="23.0" fill="#000000" transform="matrix(1.00, 0.00, -0.00, -1.00, 132.5, 176.3)"> </text><text xml:space="preserve" font-family="Helvetica-Light,Helvetica" font-size="23.0" fill="#000000" transform="matrix(1.00, 0.00, -0.00, -1.00, 138.9, 176.3)"> </text><text xml:space="preserve" font-family="Helvetica-Light,Helvetica" font-size="23.0" fill="#000000" transform="matrix(1.00, 0.00, -0.00, -1.00, 145.3, 176.3)"> </text><text xml:space="preserve" font-family="Helvetica-Light,Helvetica" font-size="23.0" fill="#000000" transform="matrix(1.00, 0.00, -0.00, -1.00, 151.7, 176.3)"> </text><text xml:space="preserve" font-family="Helvetica-Light,Helvetica" font-size="23.0" fill="#000000" transform="matrix(1.00, 0.00, -0.00, -1.00, 158.0, 176.3)"> </text><text xml:space="preserve" font-family="Helvetica-Light,Helvetica" font-size="23.0" fill="#000000" transform="matrix(1.00, 0.00, -0.00, -1.00, 164.4, 176.3)"> </text><text xml:space="preserve" font-family="Helvetica-Light,Helvetica" font-size="23.0" fill="#000000" transform="matrix(1.00, 0.00, -0.00, -1.00, 170.8, 176.3)"> </text><text xml:space="preserve" font-family="Helvetica-Light,Helvetica" font-size="23.0" fill="#000000" transform="matrix(1.00, 0.00, -0.00, -1.00, 177.2, 176.3)"> </text><text xml:space="preserve" font-family="Helvetica-Light,Helvetica" font-size="23.0" fill="#000000" transform="matrix(1.00, 0.00, -0.00, -1.00, 183.6, 176.3)"> </text><text xml:space="preserve" font-family="Helvetica-Light,Helvetica" font-size="23.0" fill="#000000" transform="matrix(1.00, 0.00, -0.00, -1.00, 190.0, 176.3)"> </text><text xml:space="preserve" font-family="Helvetica-Light,Helvetica" font-size="23.0" fill="#000000" transform="matrix(1.00, 0.00, -0.00, -1.00, 196.4, 176.3)"> </text><text xml:space="preserve" font-family="Helvetica-Light,Helvetica" font-size="23.0" fill="#000000" transform="matrix(1.00, 0.00, -0.00, -1.00, 202.8, 176.3)">{</text><text xml:space="preserve" font-family="Helvetica-Light,Helvetica" font-size="23.0" fill="#000000" transform="matrix(1.00, 0.00, -0.00, -1.00, 210.5, 176.3)">t</text><text xml:space="preserve" font-family="Helvetica-Light,Helvetica" font-size="23.0" fill="#000000" transform="matrix(1.00, 0.00, -0.00, -1.00, 216.9, 176.3)">a</text><text xml:space="preserve" font-family="Helvetica-Light,Helvetica" font-size="23.0" fill="#000000" transform="matrix(1.00, 0.00, -0.00, -1.00, 229.6, 176.3)">g</text><text xml:space="preserve" font-family="Helvetica-Light,Helvetica" font-size="23.0" fill="#000000" transform="matrix(1.00, 0.00, -0.00, -1.00, 243.7, 176.3)">:</text><text xml:space="preserve" font-family="Helvetica-Light,Helvetica" font-size="23.0" fill="#000000" transform="matrix(1.00, 0.00, -0.00, -1.00, 250.1, 176.3)"> </text><text xml:space="preserve" font-family="Helvetica-Light,Helvetica" font-size="23.0" fill="#000000" transform="matrix(1.00, 0.00, -0.00, -1.00, 256.5, 176.3)">‘</text><text xml:space="preserve" font-family="Helvetica-Light,Helvetica" font-size="23.0" fill="#000000" transform="matrix(1.00, 0.00, -0.00, -1.00, 261.6, 176.3)">i</text><text xml:space="preserve" font-family="Helvetica-Light,Helvetica" font-size="23.0" fill="#000000" transform="matrix(1.00, 0.00, -0.00, -1.00, 266.7, 176.3)">n</text><text xml:space="preserve" font-family="Helvetica-Light,Helvetica" font-size="23.0" fill="#000000" transform="matrix(1.00, 0.00, -0.00, -1.00, 279.5, 176.3)">p</text><text xml:space="preserve" font-family="Helvetica-Light,Helvetica" font-size="23.0" fill="#000000" transform="matrix(1.00, 0.00, -0.00, -1.00, 293.5, 176.3)">u</text><text xml:space="preserve" font-family="Helvetica-Light,Helvetica" font-size="23.0" fill="#000000" transform="matrix(1.00, 0.00, -0.00, -1.00, 306.3, 176.3)">t</text><text xml:space="preserve" font-family="Helvetica-Light,Helvetica" font-size="23.0" fill="#000000" transform="matrix(1.00, 0.00, -0.00, -1.00, 312.7, 176.3)">’</text><text xml:space="preserve" font-family="Helvetica-Light,Helvetica" font-size="23.0" fill="#000000" transform="matrix(1.00, 0.00, -0.00, -1.00, 317.8, 176.3)">,</text><text xml:space="preserve" font-family="Helvetica-Light,Helvetica" font-size="23.0" fill="#000000" transform="matrix(1.00, 0.00, -0.00, -1.00, 324.2, 176.3)"> </text><text xml:space="preserve" font-family="Helvetica-Light,Helvetica" font-size="23.0" fill="#000000" transform="matrix(1.00, 0.00, -0.00, -1.00, 330.6, 176.3)">a</text><text xml:space="preserve" font-family="Helvetica-Light,Helvetica" font-size="23.0" fill="#000000" transform="matrix(1.00, 0.00, -0.00, -1.00, 343.4, 176.3)">t</text><text xml:space="preserve" font-family="Helvetica-Light,Helvetica" font-size="23.0" fill="#000000" transform="matrix(1.00, 0.00, -0.00, -1.00, 349.8, 176.3)">t</text><text xml:space="preserve" font-family="Helvetica-Light,Helvetica" font-size="23.0" fill="#000000" transform="matrix(1.00, 0.00, -0.00, -1.00, 356.2, 176.3)">r</text><text xml:space="preserve" font-family="Helvetica-Light,Helvetica" font-size="23.0" fill="#000000" transform="matrix(1.00, 0.00, -0.00, -1.00, 363.9, 176.3)">s</text><text xml:space="preserve" font-family="Helvetica-Light,Helvetica" font-size="23.0" fill="#000000" transform="matrix(1.00, 0.00, -0.00, -1.00, 375.4, 176.3)">:</text><text xml:space="preserve" font-family="Helvetica-Light,Helvetica" font-size="23.0" fill="#000000" transform="matrix(1.00, 0.00, -0.00, -1.00, 381.7, 176.3)"> </text><text xml:space="preserve" font-family="Helvetica-Light,Helvetica" font-size="23.0" fill="#000000" transform="matrix(1.00, 0.00, -0.00, -1.00, 388.1, 176.3)">{</text><text xml:space="preserve" font-family="Helvetica-Light,Helvetica" font-size="23.0" fill="#000000" transform="matrix(1.00, 0.00, -0.00, -1.00, 395.8, 176.3)">t</text><text xml:space="preserve" font-family="Helvetica-Light,Helvetica" font-size="23.0" fill="#000000" transform="matrix(1.00, 0.00, -0.00, -1.00, 402.2, 176.3)">y</text><text xml:space="preserve" font-family="Helvetica-Light,Helvetica" font-size="23.0" fill="#000000" transform="matrix(1.00, 0.00, -0.00, -1.00, 413.7, 176.3)">p</text><text xml:space="preserve" font-family="Helvetica-Light,Helvetica" font-size="23.0" fill="#000000" transform="matrix(1.00, 0.00, -0.00, -1.00, 427.7, 176.3)">e</text><text xml:space="preserve" font-family="Helvetica-Light,Helvetica" font-size="23.0" fill="#000000" transform="matrix(1.00, 0.00, -0.00, -1.00, 440.5, 176.3)">:</text><text xml:space="preserve" font-family="Helvetica-Light,Helvetica" font-size="23.0" fill="#000000" transform="matrix(1.00, 0.00, -0.00, -1.00, 446.9, 176.3)">’</text><text xml:space="preserve" font-family="Helvetica-Light,Helvetica" font-size="23.0" fill="#000000" transform="matrix(1.00, 0.00, -0.00, -1.00, 451.6, 176.3)">t</text><text xml:space="preserve" font-family="Helvetica-Light,Helvetica" font-size="23.0" fill="#000000" transform="matrix(1.00, 0.00, -0.00, -1.00, 458.0, 176.3)">e</text><text xml:space="preserve" font-family="Helvetica-Light,Helvetica" font-size="23.0" fill="#000000" transform="matrix(1.00, 0.00, -0.00, -1.00, 470.8, 176.3)">x</text><text xml:space="preserve" font-family="Helvetica-Light,Helvetica" font-size="23.0" fill="#000000" transform="matrix(1.00, 0.00, -0.00, -1.00, 482.3, 176.3)">t</text><text xml:space="preserve" font-family="Helvetica-Light,Helvetica" font-size="23.0" fill="#000000" transform="matrix(1.00, 0.00, -0.00, -1.00, 488.7, 176.3)">’</text><text xml:space="preserve" font-family="Helvetica-Light,Helvetica" font-size="23.0" fill="#000000" transform="matrix(1.00, 0.00, -0.00, -1.00, 493.8, 176.3)">,</text><text xml:space="preserve" font-family="Helvetica-Light,Helvetica" font-size="23.0" fill="#000000" transform="matrix(1.00, 0.00, -0.00, -1.00, 500.2, 176.3)"> </text><text xml:space="preserve" font-family="Helvetica-Light,Helvetica" font-size="23.0" fill="#000000" transform="matrix(1.00, 0.00, -0.00, -1.00, 506.6, 176.3)">n</text><text xml:space="preserve" font-family="Helvetica-Light,Helvetica" font-size="23.0" fill="#000000" transform="matrix(1.00, 0.00, -0.00, -1.00, 519.4, 176.3)">a</text><text xml:space="preserve" font-family="Helvetica-Light,Helvetica" font-size="23.0" fill="#000000" transform="matrix(1.00, 0.00, -0.00, -1.00, 532.2, 176.3)">m</text><text xml:space="preserve" font-family="Helvetica-Light,Helvetica" font-size="23.0" fill="#000000" transform="matrix(1.00, 0.00, -0.00, -1.00, 551.3, 176.3)">e</text><text xml:space="preserve" font-family="Helvetica-Light,Helvetica" font-size="23.0" fill="#000000" transform="matrix(1.00, 0.00, -0.00, -1.00, 564.1, 176.3)">:</text><text xml:space="preserve" font-family="Helvetica-Light,Helvetica" font-size="23.0" fill="#000000" transform="matrix(1.00, 0.00, -0.00, -1.00, 570.5, 176.3)">’</text><text xml:space="preserve" font-family="Helvetica-Light,Helvetica" font-size="23.0" fill="#000000" transform="matrix(1.00, 0.00, -0.00, -1.00, 575.6, 176.3)">ﬁ</text><text xml:space="preserve" font-family="Helvetica-Light,Helvetica" font-size="23.0" fill="#000000" transform="matrix(1.00, 0.00, -0.00, -1.00, 587.1, 176.3)">r</text><text xml:space="preserve" font-family="Helvetica-Light,Helvetica" font-size="23.0" fill="#000000" transform="matrix(1.00, 0.00, -0.00, -1.00, 594.8, 176.3)">s</text><text xml:space="preserve" font-family="Helvetica-Light,Helvetica" font-size="23.0" fill="#000000" transform="matrix(1.00, 0.00, -0.00, -1.00, 606.3, 176.3)">t</text><text xml:space="preserve" font-family="Helvetica-Light,Helvetica" font-size="23.0" fill="#000000" transform="matrix(1.00, 0.00, -0.00, -1.00, 612.7, 176.3)">-</text><text xml:space="preserve" font-family="Helvetica-Light,Helvetica" font-size="23.0" fill="#000000" transform="matrix(1.00, 0.00, -0.00, -1.00, 620.3, 176.3)">n</text><text xml:space="preserve" font-family="Helvetica-Light,Helvetica" font-size="23.0" fill="#000000" transform="matrix(1.00, 0.00, -0.00, -1.00, 633.1, 176.3)">a</text><text xml:space="preserve" font-family="Helvetica-Light,Helvetica" font-size="23.0" fill="#000000" transform="matrix(1.00, 0.00, -0.00, -1.00, 645.9, 176.3)">m</text><text xml:space="preserve" font-family="Helvetica-Light,Helvetica" font-size="23.0" fill="#000000" transform="matrix(1.00, 0.00, -0.00, -1.00, 665.1, 176.3)">e</text><text xml:space="preserve" font-family="Helvetica-Light,Helvetica" font-size="23.0" fill="#000000" transform="matrix(1.00, 0.00, -0.00, -1.00, 677.8, 176.3)">’</text><text xml:space="preserve" font-family="Helvetica-Light,Helvetica" font-size="23.0" fill="#000000" transform="matrix(1.00, 0.00, -0.00, -1.00, 683.0, 176.3)">}</text><text xml:space="preserve" font-family="Helvetica-Light,Helvetica" font-size="23.0" fill="#000000" transform="matrix(1.00, 0.00, -0.00, -1.00, 690.6, 176.3)">,</text><text xml:space="preserve" font-family="Helvetica-Light,Helvetica" font-size="23.0" fill="#000000" transform="matrix(1.00, 0.00, -0.00, -1.00, 697.0, 176.3)"> </text><text xml:space="preserve" font-family="Helvetica-Light,Helvetica" font-size="23.0" fill="#000000" transform="matrix(1.00, 0.00, -0.00, -1.00, 703.4, 176.3)">l</text><text xml:space="preserve" font-family="Helvetica-Light,Helvetica" font-size="23.0" fill="#000000" transform="matrix(1.00, 0.00, -0.00, -1.00, 708.5, 176.3)">a</text><text xml:space="preserve" font-family="Helvetica-Light,Helvetica" font-size="23.0" fill="#000000" transform="matrix(1.00, 0.00, -0.00, -1.00, 721.3, 176.3)">b</text><text xml:space="preserve" font-family="Helvetica-Light,Helvetica" font-size="23.0" fill="#000000" transform="matrix(1.00, 0.00, -0.00, -1.00, 735.3, 176.3)">e</text><text xml:space="preserve" font-family="Helvetica-Light,Helvetica" font-size="23.0" fill="#000000" transform="matrix(1.00, 0.00, -0.00, -1.00, 748.1, 176.3)">l</text><text xml:space="preserve" font-family="Helvetica-Light,Helvetica" font-size="23.0" fill="#000000" transform="matrix(1.00, 0.00, -0.00, -1.00, 753.2, 176.3)">:</text><text xml:space="preserve" font-family="Helvetica-Light,Helvetica" font-size="23.0" fill="#000000" transform="matrix(1.00, 0.00, -0.00, -1.00, 759.6, 176.3)">’</text><text xml:space="preserve" font-family="Helvetica-Light,Helvetica" font-size="23.0" fill="#000000" transform="matrix(1.00, 0.00, -0.00, -1.00, 764.7, 176.3)">F</text><text xml:space="preserve" font-family="Helvetica-Light,Helvetica" font-size="23.0" fill="#000000" transform="matrix(1.00, 0.00, -0.00, -1.00, 777.5, 176.3)">i</text><text xml:space="preserve" font-family="Helvetica-Light,Helvetica" font-size="23.0" fill="#000000" transform="matrix(1.00, 0.00, -0.00, -1.00, 782.6, 176.3)">r</text><text xml:space="preserve" font-family="Helvetica-Light,Helvetica" font-size="23.0" fill="#000000" transform="matrix(1.00, 0.00, -0.00, -1.00, 790.3, 176.3)">s</text><text xml:space="preserve" font-family="Helvetica-Light,Helvetica" font-size="23.0" fill="#000000" transform="matrix(1.00, 0.00, -0.00, -1.00, 801.8, 176.3)">t</text><text xml:space="preserve" font-family="Helvetica-Light,Helvetica" font-size="23.0" fill="#000000" transform="matrix(1.00, 0.00, -0.00, -1.00, 808.2, 176.3)"> </text><text xml:space="preserve" font-family="Helvetica-Light,Helvetica" font-size="23.0" fill="#000000" transform="matrix(1.00, 0.00, -0.00, -1.00, 814.6, 176.3)">N</text><text xml:space="preserve" font-family="Helvetica-Light,Helvetica" font-size="23.0" fill="#000000" transform="matrix(1.00, 0.00, -0.00, -1.00, 831.2, 176.3)">a</text><text xml:space="preserve" font-family="Helvetica-Light,Helvetica" font-size="23.0" fill="#000000" transform="matrix(1.00, 0.00, -0.00, -1.00, 844.0, 176.3)">m</text><text xml:space="preserve" font-family="Helvetica-Light,Helvetica" font-size="23.0" fill="#000000" transform="matrix(1.00, 0.00, -0.00, -1.00, 863.1, 176.3)">e</text><text xml:space="preserve" font-family="Helvetica-Light,Helvetica" font-size="23.0" fill="#000000" transform="matrix(1.00, 0.00, -0.00, -1.00, 875.9, 176.3)">’</text><text xml:space="preserve" font-family="Helvetica-Light,Helvetica" font-size="23.0" fill="#000000" transform="matrix(1.00, 0.00, -0.00, -1.00, 881.0, 176.3)">}</text><text xml:space="preserve" font-family="Helvetica-Light,Helvetica" font-size="23.0" fill="#000000" transform="matrix(1.00, 0.00, -0.00, -1.00, 888.7, 176.3)">,</text><text xml:space="preserve" font-family="Helvetica-Light,Helvetica" font-size="23.0" fill="#000000" transform="matrix(1.00, 0.00, -0.00, -1.00, 895.1, 176.3)"> </text><text xml:space="preserve" font-family="Helvetica-Light,Helvetica" font-size="23.0" fill="#000000" transform="matrix(1.00, 0.00, -0.00, -1.00, 126.1, 148.3)"> </text><text xml:space="preserve" font-family="Helvetica-Light,Helvetica" font-size="23.0" fill="#000000" transform="matrix(1.00, 0.00, -0.00, -1.00, 172.1, 148.3)"> </text><text xml:space="preserve" font-family="Helvetica-Light,Helvetica" font-size="23.0" fill="#000000" transform="matrix(1.00, 0.00, -0.00, -1.00, 178.5, 148.3)"> </text><text xml:space="preserve" font-family="Helvetica-Light,Helvetica" font-size="23.0" fill="#000000" transform="matrix(1.00, 0.00, -0.00, -1.00, 184.9, 148.3)"> </text><text xml:space="preserve" font-family="Helvetica-Light,Helvetica" font-size="23.0" fill="#000000" transform="matrix(1.00, 0.00, -0.00, -1.00, 191.3, 148.3)"> </text><text xml:space="preserve" font-family="Helvetica-Light,Helvetica" font-size="23.0" fill="#000000" transform="matrix(1.00, 0.00, -0.00, -1.00, 197.7, 148.3)"> </text><text xml:space="preserve" font-family="Helvetica-Light,Helvetica" font-size="23.0" fill="#000000" transform="matrix(1.00, 0.00, -0.00, -1.00, 204.0, 148.3)">{</text><text xml:space="preserve" font-family="Helvetica-Light,Helvetica" font-size="23.0" fill="#000000" transform="matrix(1.00, 0.00, -0.00, -1.00, 211.7, 148.3)">t</text><text xml:space="preserve" font-family="Helvetica-Light,Helvetica" font-size="23.0" fill="#000000" transform="matrix(1.00, 0.00, -0.00, -1.00, 218.1, 148.3)">a</text><text xml:space="preserve" font-family="Helvetica-Light,Helvetica" font-size="23.0" fill="#000000" transform="matrix(1.00, 0.00, -0.00, -1.00, 230.9, 148.3)">g</text><text xml:space="preserve" font-family="Helvetica-Light,Helvetica" font-size="23.0" fill="#000000" transform="matrix(1.00, 0.00, -0.00, -1.00, 244.9, 148.3)">:</text><text xml:space="preserve" font-family="Helvetica-Light,Helvetica" font-size="23.0" fill="#000000" transform="matrix(1.00, 0.00, -0.00, -1.00, 251.3, 148.3)"> </text><text xml:space="preserve" font-family="Helvetica-Light,Helvetica" font-size="23.0" fill="#000000" transform="matrix(1.00, 0.00, -0.00, -1.00, 257.7, 148.3)">‘</text><text xml:space="preserve" font-family="Helvetica-Light,Helvetica" font-size="23.0" fill="#000000" transform="matrix(1.00, 0.00, -0.00, -1.00, 262.8, 148.3)">i</text><text xml:space="preserve" font-family="Helvetica-Light,Helvetica" font-size="23.0" fill="#000000" transform="matrix(1.00, 0.00, -0.00, -1.00, 267.9, 148.3)">n</text><text xml:space="preserve" font-family="Helvetica-Light,Helvetica" font-size="23.0" fill="#000000" transform="matrix(1.00, 0.00, -0.00, -1.00, 280.7, 148.3)">p</text><text xml:space="preserve" font-family="Helvetica-Light,Helvetica" font-size="23.0" fill="#000000" transform="matrix(1.00, 0.00, -0.00, -1.00, 294.8, 148.3)">u</text><text xml:space="preserve" font-family="Helvetica-Light,Helvetica" font-size="23.0" fill="#000000" transform="matrix(1.00, 0.00, -0.00, -1.00, 307.6, 148.3)">t</text><text xml:space="preserve" font-family="Helvetica-Light,Helvetica" font-size="23.0" fill="#000000" transform="matrix(1.00, 0.00, -0.00, -1.00, 314.0, 148.3)">’</text><text xml:space="preserve" font-family="Helvetica-Light,Helvetica" font-size="23.0" fill="#000000" transform="matrix(1.00, 0.00, -0.00, -1.00, 319.1, 148.3)">,</text><text xml:space="preserve" font-family="Helvetica-Light,Helvetica" font-size="23.0" fill="#000000" transform="matrix(1.00, 0.00, -0.00, -1.00, 325.5, 148.3)"> </text><text xml:space="preserve" font-family="Helvetica-Light,Helvetica" font-size="23.0" fill="#000000" transform="matrix(1.00, 0.00, -0.00, -1.00, 331.9, 148.3)">a</text><text xml:space="preserve" font-family="Helvetica-Light,Helvetica" font-size="23.0" fill="#000000" transform="matrix(1.00, 0.00, -0.00, -1.00, 344.6, 148.3)">t</text><text xml:space="preserve" font-family="Helvetica-Light,Helvetica" font-size="23.0" fill="#000000" transform="matrix(1.00, 0.00, -0.00, -1.00, 351.0, 148.3)">t</text><text xml:space="preserve" font-family="Helvetica-Light,Helvetica" font-size="23.0" fill="#000000" transform="matrix(1.00, 0.00, -0.00, -1.00, 357.4, 148.3)">r</text><text xml:space="preserve" font-family="Helvetica-Light,Helvetica" font-size="23.0" fill="#000000" transform="matrix(1.00, 0.00, -0.00, -1.00, 365.1, 148.3)">s</text><text xml:space="preserve" font-family="Helvetica-Light,Helvetica" font-size="23.0" fill="#000000" transform="matrix(1.00, 0.00, -0.00, -1.00, 376.6, 148.3)">:</text><text xml:space="preserve" font-family="Helvetica-Light,Helvetica" font-size="23.0" fill="#000000" transform="matrix(1.00, 0.00, -0.00, -1.00, 383.0, 148.3)"> </text><text xml:space="preserve" font-family="Helvetica-Light,Helvetica" font-size="23.0" fill="#000000" transform="matrix(1.00, 0.00, -0.00, -1.00, 389.4, 148.3)">{</text><text xml:space="preserve" font-family="Helvetica-Light,Helvetica" font-size="23.0" fill="#000000" transform="matrix(1.00, 0.00, -0.00, -1.00, 397.0, 148.3)">t</text><text xml:space="preserve" font-family="Helvetica-Light,Helvetica" font-size="23.0" fill="#000000" transform="matrix(1.00, 0.00, -0.00, -1.00, 403.4, 148.3)">y</text><text xml:space="preserve" font-family="Helvetica-Light,Helvetica" font-size="23.0" fill="#000000" transform="matrix(1.00, 0.00, -0.00, -1.00, 414.9, 148.3)">p</text><text xml:space="preserve" font-family="Helvetica-Light,Helvetica" font-size="23.0" fill="#000000" transform="matrix(1.00, 0.00, -0.00, -1.00, 429.0, 148.3)">e</text><text xml:space="preserve" font-family="Helvetica-Light,Helvetica" font-size="23.0" fill="#000000" transform="matrix(1.00, 0.00, -0.00, -1.00, 441.8, 148.3)">:</text><text xml:space="preserve" font-family="Helvetica-Light,Helvetica" font-size="23.0" fill="#000000" transform="matrix(1.00, 0.00, -0.00, -1.00, 448.2, 148.3)">’</text><text xml:space="preserve" font-family="Helvetica-Light,Helvetica" font-size="23.0" fill="#000000" transform="matrix(1.00, 0.00, -0.00, -1.00, 452.9, 148.3)">t</text><text xml:space="preserve" font-family="Helvetica-Light,Helvetica" font-size="23.0" fill="#000000" transform="matrix(1.00, 0.00, -0.00, -1.00, 459.3, 148.3)">e</text><text xml:space="preserve" font-family="Helvetica-Light,Helvetica" font-size="23.0" fill="#000000" transform="matrix(1.00, 0.00, -0.00, -1.00, 472.0, 148.3)">x</text><text xml:space="preserve" font-family="Helvetica-Light,Helvetica" font-size="23.0" fill="#000000" transform="matrix(1.00, 0.00, -0.00, -1.00, 483.5, 148.3)">t</text><text xml:space="preserve" font-family="Helvetica-Light,Helvetica" font-size="23.0" fill="#000000" transform="matrix(1.00, 0.00, -0.00, -1.00, 489.9, 148.3)">’</text><text xml:space="preserve" font-family="Helvetica-Light,Helvetica" font-size="23.0" fill="#000000" transform="matrix(1.00, 0.00, -0.00, -1.00, 495.0, 148.3)">,</text><text xml:space="preserve" font-family="Helvetica-Light,Helvetica" font-size="23.0" fill="#000000" transform="matrix(1.00, 0.00, -0.00, -1.00, 501.4, 148.3)"> </text><text xml:space="preserve" font-family="Helvetica-Light,Helvetica" font-size="23.0" fill="#000000" transform="matrix(1.00, 0.00, -0.00, -1.00, 507.8, 148.3)">n</text><text xml:space="preserve" font-family="Helvetica-Light,Helvetica" font-size="23.0" fill="#000000" transform="matrix(1.00, 0.00, -0.00, -1.00, 520.6, 148.3)">a</text><text xml:space="preserve" font-family="Helvetica-Light,Helvetica" font-size="23.0" fill="#000000" transform="matrix(1.00, 0.00, -0.00, -1.00, 533.4, 148.3)">m</text><text xml:space="preserve" font-family="Helvetica-Light,Helvetica" font-size="23.0" fill="#000000" transform="matrix(1.00, 0.00, -0.00, -1.00, 552.6, 148.3)">e</text><text xml:space="preserve" font-family="Helvetica-Light,Helvetica" font-size="23.0" fill="#000000" transform="matrix(1.00, 0.00, -0.00, -1.00, 565.4, 148.3)">:</text><text xml:space="preserve" font-family="Helvetica-Light,Helvetica" font-size="23.0" fill="#000000" transform="matrix(1.00, 0.00, -0.00, -1.00, 571.7, 148.3)">’</text><text xml:space="preserve" font-family="Helvetica-Light,Helvetica" font-size="23.0" fill="#000000" transform="matrix(1.00, 0.00, -0.00, -1.00, 576.9, 148.3)">l</text><text xml:space="preserve" font-family="Helvetica-Light,Helvetica" font-size="23.0" fill="#000000" transform="matrix(1.00, 0.00, -0.00, -1.00, 582.0, 148.3)">a</text><text xml:space="preserve" font-family="Helvetica-Light,Helvetica" font-size="23.0" fill="#000000" transform="matrix(1.00, 0.00, -0.00, -1.00, 594.7, 148.3)">s</text><text xml:space="preserve" font-family="Helvetica-Light,Helvetica" font-size="23.0" fill="#000000" transform="matrix(1.00, 0.00, -0.00, -1.00, 606.2, 148.3)">t</text><text xml:space="preserve" font-family="Helvetica-Light,Helvetica" font-size="23.0" fill="#000000" transform="matrix(1.00, 0.00, -0.00, -1.00, 612.6, 148.3)">-</text><text xml:space="preserve" font-family="Helvetica-Light,Helvetica" font-size="23.0" fill="#000000" transform="matrix(1.00, 0.00, -0.00, -1.00, 620.3, 148.3)">n</text><text xml:space="preserve" font-family="Helvetica-Light,Helvetica" font-size="23.0" fill="#000000" transform="matrix(1.00, 0.00, -0.00, -1.00, 633.1, 148.3)">a</text><text xml:space="preserve" font-family="Helvetica-Light,Helvetica" font-size="23.0" fill="#000000" transform="matrix(1.00, 0.00, -0.00, -1.00, 645.9, 148.3)">m</text><text xml:space="preserve" font-family="Helvetica-Light,Helvetica" font-size="23.0" fill="#000000" transform="matrix(1.00, 0.00, -0.00, -1.00, 665.0, 148.3)">e</text><text xml:space="preserve" font-family="Helvetica-Light,Helvetica" font-size="23.0" fill="#000000" transform="matrix(1.00, 0.00, -0.00, -1.00, 677.8, 148.3)">’</text><text xml:space="preserve" font-family="Helvetica-Light,Helvetica" font-size="23.0" fill="#000000" transform="matrix(1.00, 0.00, -0.00, -1.00, 682.9, 148.3)">}</text><text xml:space="preserve" font-family="Helvetica-Light,Helvetica" font-size="23.0" fill="#000000" transform="matrix(1.00, 0.00, -0.00, -1.00, 690.6, 148.3)">,</text><text xml:space="preserve" font-family="Helvetica-Light,Helvetica" font-size="23.0" fill="#000000" transform="matrix(1.00, 0.00, -0.00, -1.00, 697.0, 148.3)"> </text><text xml:space="preserve" font-family="Helvetica-Light,Helvetica" font-size="23.0" fill="#000000" transform="matrix(1.00, 0.00, -0.00, -1.00, 703.4, 148.3)">l</text><text xml:space="preserve" font-family="Helvetica-Light,Helvetica" font-size="23.0" fill="#000000" transform="matrix(1.00, 0.00, -0.00, -1.00, 708.5, 148.3)">a</text><text xml:space="preserve" font-family="Helvetica-Light,Helvetica" font-size="23.0" fill="#000000" transform="matrix(1.00, 0.00, -0.00, -1.00, 721.3, 148.3)">b</text><text xml:space="preserve" font-family="Helvetica-Light,Helvetica" font-size="23.0" fill="#000000" transform="matrix(1.00, 0.00, -0.00, -1.00, 735.3, 148.3)">e</text><text xml:space="preserve" font-family="Helvetica-Light,Helvetica" font-size="23.0" fill="#000000" transform="matrix(1.00, 0.00, -0.00, -1.00, 748.1, 148.3)">l</text><text xml:space="preserve" font-family="Helvetica-Light,Helvetica" font-size="23.0" fill="#000000" transform="matrix(1.00, 0.00, -0.00, -1.00, 753.2, 148.3)">:</text><text xml:space="preserve" font-family="Helvetica-Light,Helvetica" font-size="23.0" fill="#000000" transform="matrix(1.00, 0.00, -0.00, -1.00, 759.6, 148.3)">’</text><text xml:space="preserve" font-family="Helvetica-Light,Helvetica" font-size="23.0" fill="#000000" transform="matrix(1.00, 0.00, -0.00, -1.00, 764.7, 148.3)">L</text><text xml:space="preserve" font-family="Helvetica-Light,Helvetica" font-size="23.0" fill="#000000" transform="matrix(1.00, 0.00, -0.00, -1.00, 777.5, 148.3)">a</text><text xml:space="preserve" font-family="Helvetica-Light,Helvetica" font-size="23.0" fill="#000000" transform="matrix(1.00, 0.00, -0.00, -1.00, 790.3, 148.3)">s</text><text xml:space="preserve" font-family="Helvetica-Light,Helvetica" font-size="23.0" fill="#000000" transform="matrix(1.00, 0.00, -0.00, -1.00, 801.8, 148.3)">t</text><text xml:space="preserve" font-family="Helvetica-Light,Helvetica" font-size="23.0" fill="#000000" transform="matrix(1.00, 0.00, -0.00, -1.00, 808.2, 148.3)"> </text><text xml:space="preserve" font-family="Helvetica-Light,Helvetica" font-size="23.0" fill="#000000" transform="matrix(1.00, 0.00, -0.00, -1.00, 814.6, 148.3)">N</text><text xml:space="preserve" font-family="Helvetica-Light,Helvetica" font-size="23.0" fill="#000000" transform="matrix(1.00, 0.00, -0.00, -1.00, 831.2, 148.3)">a</text><text xml:space="preserve" font-family="Helvetica-Light,Helvetica" font-size="23.0" fill="#000000" transform="matrix(1.00, 0.00, -0.00, -1.00, 844.0, 148.3)">m</text><text xml:space="preserve" font-family="Helvetica-Light,Helvetica" font-size="23.0" fill="#000000" transform="matrix(1.00, 0.00, -0.00, -1.00, 863.1, 148.3)">e</text><text xml:space="preserve" font-family="Helvetica-Light,Helvetica" font-size="23.0" fill="#000000" transform="matrix(1.00, 0.00, -0.00, -1.00, 875.9, 148.3)">’</text><text xml:space="preserve" font-family="Helvetica-Light,Helvetica" font-size="23.0" fill="#000000" transform="matrix(1.00, 0.00, -0.00, -1.00, 881.0, 148.3)">}</text><text xml:space="preserve" font-family="Helvetica-Light,Helvetica" font-size="23.0" fill="#000000" transform="matrix(1.00, 0.00, -0.00, -1.00, 888.7, 148.3)"> </text><text xml:space="preserve" font-family="Helvetica-Light,Helvetica" font-size="23.0" fill="#000000" transform="matrix(1.00, 0.00, -0.00, -1.00, 126.1, 120.3)"> </text><text xml:space="preserve" font-family="Helvetica-Light,Helvetica" font-size="23.0" fill="#000000" transform="matrix(1.00, 0.00, -0.00, -1.00, 172.1, 120.3)"> </text><text xml:space="preserve" font-family="Helvetica-Light,Helvetica" font-size="23.0" fill="#000000" transform="matrix(1.00, 0.00, -0.00, -1.00, 178.5, 120.3)"> </text><text xml:space="preserve" font-family="Helvetica-Light,Helvetica" font-size="23.0" fill="#000000" transform="matrix(1.00, 0.00, -0.00, -1.00, 184.9, 120.3)"> </text><text xml:space="preserve" font-family="Helvetica-Light,Helvetica" font-size="23.0" fill="#000000" transform="matrix(1.00, 0.00, -0.00, -1.00, 191.3, 120.3)">]</text><text xml:space="preserve" font-family="Helvetica-Light,Helvetica" font-size="23.0" fill="#000000" transform="matrix(1.00, 0.00, -0.00, -1.00, 198.9, 120.3)"> </text><text xml:space="preserve" font-family="Helvetica-Light,Helvetica" font-size="23.0" fill="#000000" transform="matrix(1.00, 0.00, -0.00, -1.00, 126.1, 92.3)"> </text><text xml:space="preserve" font-family="Helvetica-Light,Helvetica" font-size="23.0" fill="#000000" transform="matrix(1.00, 0.00, -0.00, -1.00, 172.1, 92.3)">}</text><text xml:space="preserve" font-family="Helvetica-Light,Helvetica" font-size="23.0" fill="#000000" transform="matrix(1.00, 0.00, -0.00, -1.00, 179.7, 92.3)"> </text><text xml:space="preserve" font-family="Helvetica-Light,Helvetica" font-size="23.0" fill="#000000" transform="matrix(1.00, 0.00, -0.00, -1.00, 126.1, 64.3)">}</text></g></svg>