<?xml version="1.0" encoding="UTF-8" standalone="no"?><svg xmlns="http://www.w3.org/2000/svg" xmlns:xlink="http://www.w3.org/1999/xlink" clip-rule="evenodd" stroke-miterlimit="10" viewBox="0 0 1024 768"><desc>SVG generated by Keynote</desc><defs></defs><g transform="matrix(1.00, 0.00, -0.00, -1.00, 0.0, 768.0)"><path d="M 0.0 768.0 L 1024.0 768.0 L 1024.0 0.0 L 0.0 0.0 Z M 0.0 768.0 " fill="#FEFFFF"></path><image xlink:href="../../48A51027-A7C9-408C-8357-FC14D91936F3/assets/71EFC10EAF94B4B978ED9C2BC652EB6B.png" width="128.00" height="128.00" transform="matrix(1.00, 0.00, -0.00, -1.00, 169.3, 448.0)"></image><image xlink:href="../../48A51027-A7C9-408C-8357-FC14D91936F3/assets/3155C7367CE13D4348D1A495307BACD8.png" width="128.00" height="128.00" transform="matrix(1.00, 0.00, -0.00, -1.00, 695.6, 448.0)"></image><text xml:space="preserve" font-family="Helvetica-Light,Helvetica" font-size="12.0" fill="#000000" transform="matrix(1.00, 0.00, -0.00, -1.00, 316.5, 511.5)">•</text><text xml:space="preserve" font-family="Helvetica-Light,Helvetica" font-size="16.0" fill="#000000" transform="matrix(1.00, 0.00, -0.00, -1.00, 351.5, 509.9)">_</text><text xml:space="preserve" font-family="Helvetica-Light,Helvetica" font-size="16.0" fill="#000000" transform="matrix(1.00, 0.00, -0.00, -1.00, 359.5, 509.9)">i</text><text xml:space="preserve" font-family="Helvetica-Light,Helvetica" font-size="16.0" fill="#000000" transform="matrix(1.00, 0.00, -0.00, -1.00, 363.0, 509.9)">d</text><text xml:space="preserve" font-family="Helvetica-Light,Helvetica" font-size="16.0" fill="#000000" transform="matrix(1.00, 0.00, -0.00, -1.00, 372.8, 509.9)"> </text><text xml:space="preserve" font-family="Helvetica-Light,Helvetica" font-size="12.0" fill="#000000" transform="matrix(1.00, 0.00, -0.00, -1.00, 316.5, 467.6)">•</text><text xml:space="preserve" font-family="Helvetica-Light,Helvetica" font-size="16.0" fill="#000000" transform="matrix(1.00, 0.00, -0.00, -1.00, 351.5, 466.0)">ﬁ</text><text xml:space="preserve" font-family="Helvetica-Light,Helvetica" font-size="16.0" fill="#000000" transform="matrix(1.00, 0.00, -0.00, -1.00, 359.5, 466.0)">r</text><text xml:space="preserve" font-family="Helvetica-Light,Helvetica" font-size="16.0" fill="#000000" transform="matrix(1.00, 0.00, -0.00, -1.00, 364.8, 466.0)">s</text><text xml:space="preserve" font-family="Helvetica-Light,Helvetica" font-size="16.0" fill="#000000" transform="matrix(1.00, 0.00, -0.00, -1.00, 372.8, 466.0)">t</text><text xml:space="preserve" font-family="Helvetica-Light,Helvetica" font-size="16.0" fill="#000000" transform="matrix(1.00, 0.00, -0.00, -1.00, 377.3, 466.0)">N</text><text xml:space="preserve" font-family="Helvetica-Light,Helvetica" font-size="16.0" fill="#000000" transform="matrix(1.00, 0.00, -0.00, -1.00, 388.8, 466.0)">a</text><text xml:space="preserve" font-family="Helvetica-Light,Helvetica" font-size="16.0" fill="#000000" transform="matrix(1.00, 0.00, -0.00, -1.00, 397.7, 466.0)">m</text><text xml:space="preserve" font-family="Helvetica-Light,Helvetica" font-size="16.0" fill="#000000" transform="matrix(1.00, 0.00, -0.00, -1.00, 411.0, 466.0)">e</text><text xml:space="preserve" font-family="Helvetica-Light,Helvetica" font-size="16.0" fill="#000000" transform="matrix(1.00, 0.00, -0.00, -1.00, 419.9, 466.0)"> </text><text xml:space="preserve" font-family="Helvetica-Light,Helvetica" font-size="12.0" fill="#000000" transform="matrix(1.00, 0.00, -0.00, -1.00, 316.5, 423.7)">•</text><text xml:space="preserve" font-family="Helvetica-Light,Helvetica" font-size="16.0" fill="#000000" transform="matrix(1.00, 0.00, -0.00, -1.00, 351.5, 422.1)">l</text><text xml:space="preserve" font-family="Helvetica-Light,Helvetica" font-size="16.0" fill="#000000" transform="matrix(1.00, 0.00, -0.00, -1.00, 355.0, 422.1)">a</text><text xml:space="preserve" font-family="Helvetica-Light,Helvetica" font-size="16.0" fill="#000000" transform="matrix(1.00, 0.00, -0.00, -1.00, 363.9, 422.1)">s</text><text xml:space="preserve" font-family="Helvetica-Light,Helvetica" font-size="16.0" fill="#000000" transform="matrix(1.00, 0.00, -0.00, -1.00, 371.9, 422.1)">t</text><text xml:space="preserve" font-family="Helvetica-Light,Helvetica" font-size="16.0" fill="#000000" transform="matrix(1.00, 0.00, -0.00, -1.00, 376.4, 422.1)">N</text><text xml:space="preserve" font-family="Helvetica-Light,Helvetica" font-size="16.0" fill="#000000" transform="matrix(1.00, 0.00, -0.00, -1.00, 387.9, 422.1)">a</text><text xml:space="preserve" font-family="Helvetica-Light,Helvetica" font-size="16.0" fill="#000000" transform="matrix(1.00, 0.00, -0.00, -1.00, 396.8, 422.1)">m</text><text xml:space="preserve" font-family="Helvetica-Light,Helvetica" font-size="16.0" fill="#000000" transform="matrix(1.00, 0.00, -0.00, -1.00, 410.1, 422.1)">e</text><text xml:space="preserve" font-family="Helvetica-Light,Helvetica" font-size="16.0" fill="#000000" transform="matrix(1.00, 0.00, -0.00, -1.00, 419.0, 422.1)"> </text><text xml:space="preserve" font-family="Helvetica-Light,Helvetica" font-size="12.0" fill="#000000" transform="matrix(1.00, 0.00, -0.00, -1.00, 316.5, 379.8)">•</text><text xml:space="preserve" font-family="Helvetica-Light,Helvetica" font-size="16.0" fill="#000000" transform="matrix(1.00, 0.00, -0.00, -1.00, 351.5, 378.2)">e</text><text xml:space="preserve" font-family="Helvetica-Light,Helvetica" font-size="16.0" fill="#000000" transform="matrix(1.00, 0.00, -0.00, -1.00, 360.4, 378.2)">m</text><text xml:space="preserve" font-family="Helvetica-Light,Helvetica" font-size="16.0" fill="#000000" transform="matrix(1.00, 0.00, -0.00, -1.00, 373.7, 378.2)">a</text><text xml:space="preserve" font-family="Helvetica-Light,Helvetica" font-size="16.0" fill="#000000" transform="matrix(1.00, 0.00, -0.00, -1.00, 382.6, 378.2)">i</text><text xml:space="preserve" font-family="Helvetica-Light,Helvetica" font-size="16.0" fill="#000000" transform="matrix(1.00, 0.00, -0.00, -1.00, 386.2, 378.2)">l</text><text xml:space="preserve" font-family="Helvetica-Light,Helvetica" font-size="16.0" fill="#000000" transform="matrix(1.00, 0.00, -0.00, -1.00, 389.7, 378.2)"> </text><text xml:space="preserve" font-family="Helvetica-Light,Helvetica" font-size="12.0" fill="#000000" transform="matrix(1.00, 0.00, -0.00, -1.00, 316.5, 335.9)">•</text><text xml:space="preserve" font-family="Helvetica-Light,Helvetica" font-size="16.0" fill="#000000" transform="matrix(1.00, 0.00, -0.00, -1.00, 351.5, 334.3)">p</text><text xml:space="preserve" font-family="Helvetica-Light,Helvetica" font-size="16.0" fill="#000000" transform="matrix(1.00, 0.00, -0.00, -1.00, 361.3, 334.3)">a</text><text xml:space="preserve" font-family="Helvetica-Light,Helvetica" font-size="16.0" fill="#000000" transform="matrix(1.00, 0.00, -0.00, -1.00, 370.2, 334.3)">s</text><text xml:space="preserve" font-family="Helvetica-Light,Helvetica" font-size="16.0" fill="#000000" transform="matrix(1.00, 0.00, -0.00, -1.00, 378.2, 334.3)">s</text><text xml:space="preserve" font-family="Helvetica-Light,Helvetica" font-size="16.0" fill="#000000" transform="matrix(1.00, 0.00, -0.00, -1.00, 386.1, 334.3)">w</text><text xml:space="preserve" font-family="Helvetica-Light,Helvetica" font-size="16.0" fill="#000000" transform="matrix(1.00, 0.00, -0.00, -1.00, 397.7, 334.3)">o</text><text xml:space="preserve" font-family="Helvetica-Light,Helvetica" font-size="16.0" fill="#000000" transform="matrix(1.00, 0.00, -0.00, -1.00, 406.6, 334.3)">r</text><text xml:space="preserve" font-family="Helvetica-Light,Helvetica" font-size="16.0" fill="#000000" transform="matrix(1.00, 0.00, -0.00, -1.00, 411.6, 334.3)">d</text><text xml:space="preserve" font-family="Helvetica-Light,Helvetica" font-size="16.0" fill="#000000" transform="matrix(1.00, 0.00, -0.00, -1.00, 421.4, 334.3)"> </text><text xml:space="preserve" font-family="Helvetica-Light,Helvetica" font-size="12.0" fill="#000000" transform="matrix(1.00, 0.00, -0.00, -1.00, 316.5, 292.0)">•</text><text xml:space="preserve" font-family="Helvetica-Light,Helvetica" font-size="16.0" fill="#000000" transform="matrix(1.00, 0.00, -0.00, -1.00, 351.5, 290.4)">u</text><text xml:space="preserve" font-family="Helvetica-Light,Helvetica" font-size="16.0" fill="#000000" transform="matrix(1.00, 0.00, -0.00, -1.00, 360.4, 290.4)">s</text><text xml:space="preserve" font-family="Helvetica-Light,Helvetica" font-size="16.0" fill="#000000" transform="matrix(1.00, 0.00, -0.00, -1.00, 368.4, 290.4)">e</text><text xml:space="preserve" font-family="Helvetica-Light,Helvetica" font-size="16.0" fill="#000000" transform="matrix(1.00, 0.00, -0.00, -1.00, 377.3, 290.4)">r</text><text xml:space="preserve" font-family="Helvetica-Light,Helvetica" font-size="16.0" fill="#000000" transform="matrix(1.00, 0.00, -0.00, -1.00, 382.9, 290.4)">n</text><text xml:space="preserve" font-family="Helvetica-Light,Helvetica" font-size="16.0" fill="#000000" transform="matrix(1.00, 0.00, -0.00, -1.00, 391.8, 290.4)">a</text><text xml:space="preserve" font-family="Helvetica-Light,Helvetica" font-size="16.0" fill="#000000" transform="matrix(1.00, 0.00, -0.00, -1.00, 400.7, 290.4)">m</text><text xml:space="preserve" font-family="Helvetica-Light,Helvetica" font-size="16.0" fill="#000000" transform="matrix(1.00, 0.00, -0.00, -1.00, 414.0, 290.4)">e</text><text xml:space="preserve" font-family="Helvetica-Light,Helvetica" font-size="16.0" fill="#000000" transform="matrix(1.00, 0.00, -0.00, -1.00, 422.9, 290.4)"> </text><text xml:space="preserve" font-family="Helvetica-Light,Helvetica" font-size="12.0" fill="#000000" transform="matrix(1.00, 0.00, -0.00, -1.00, 316.5, 248.1)">•</text><text xml:space="preserve" font-family="Helvetica-Light,Helvetica" font-size="16.0" fill="#000000" transform="matrix(1.00, 0.00, -0.00, -1.00, 351.5, 246.5)">c</text><text xml:space="preserve" font-family="Helvetica-Light,Helvetica" font-size="16.0" fill="#000000" transform="matrix(1.00, 0.00, -0.00, -1.00, 360.4, 246.5)">r</text><text xml:space="preserve" font-family="Helvetica-Light,Helvetica" font-size="16.0" fill="#000000" transform="matrix(1.00, 0.00, -0.00, -1.00, 365.4, 246.5)">e</text><text xml:space="preserve" font-family="Helvetica-Light,Helvetica" font-size="16.0" fill="#000000" transform="matrix(1.00, 0.00, -0.00, -1.00, 374.3, 246.5)">a</text><text xml:space="preserve" font-family="Helvetica-Light,Helvetica" font-size="16.0" fill="#000000" transform="matrix(1.00, 0.00, -0.00, -1.00, 383.2, 246.5)">t</text><text xml:space="preserve" font-family="Helvetica-Light,Helvetica" font-size="16.0" fill="#000000" transform="matrix(1.00, 0.00, -0.00, -1.00, 387.7, 246.5)">e</text><text xml:space="preserve" font-family="Helvetica-Light,Helvetica" font-size="16.0" fill="#000000" transform="matrix(1.00, 0.00, -0.00, -1.00, 396.6, 246.5)">d</text></g></svg>