<?xml version="1.0" encoding="UTF-8" standalone="no"?><svg xmlns="http://www.w3.org/2000/svg" xmlns:xlink="http://www.w3.org/1999/xlink" clip-rule="evenodd" stroke-miterlimit="10" viewBox="0 0 1024 768"><desc>SVG generated by Keynote</desc><defs></defs><g transform="matrix(1.00, 0.00, -0.00, -1.00, 0.0, 768.0)"><path d="M 0.0 768.0 L 1024.0 768.0 L 1024.0 0.0 L 0.0 0.0 Z M 0.0 768.0 " fill="#FEFFFF"></path><image xlink:href="../../5014311F-277D-40B3-9FA6-91C358529002/assets/870103687BD544C33A145940EA90D1F8.png" width="166.00" height="198.00" transform="matrix(0.40, 0.00, -0.00, -0.40, 106.3, 680.9)"></image><text xml:space="preserve" font-family="Helvetica-Light,Helvetica" font-size="36.0" fill="#000000" transform="matrix(1.00, 0.00, -0.00, -1.00, 91.8, 698.8)">t</text><text xml:space="preserve" font-family="Helvetica-Light,Helvetica" font-size="36.0" fill="#000000" transform="matrix(1.00, 0.00, -0.00, -1.00, 101.8, 698.8)">y</text><text xml:space="preserve" font-family="Helvetica-Light,Helvetica" font-size="36.0" fill="#000000" transform="matrix(1.00, 0.00, -0.00, -1.00, 119.8, 698.8)">p</text><text xml:space="preserve" font-family="Helvetica-Light,Helvetica" font-size="36.0" fill="#000000" transform="matrix(1.00, 0.00, -0.00, -1.00, 141.8, 698.8)">e</text><text xml:space="preserve" font-family="Helvetica-Light,Helvetica" font-size="36.0" fill="#000000" transform="matrix(1.00, 0.00, -0.00, -1.00, 161.8, 698.8)">:</text><text xml:space="preserve" font-family="Helvetica-Light,Helvetica" font-size="36.0" fill="#000000" transform="matrix(1.00, 0.00, -0.00, -1.00, 171.8, 698.8)"> </text><text xml:space="preserve" font-family="Helvetica-Light,Helvetica" font-size="36.0" fill="#000000" transform="matrix(1.00, 0.00, -0.00, -1.00, 181.8, 698.8)">*</text><image xlink:href="../../48A51027-A7C9-408C-8357-FC14D91936F3/assets/3155C7367CE13D4348D1A495307BACD8.png" width="128.00" height="128.00" transform="matrix(1.00, 0.00, -0.00, -1.00, 195.1, 490.2)"></image><path d="M 0.2 0.0 L 394.2 0.0 " fill="none" stroke="#000000" stroke-width="2.00" transform="matrix(0.00, 1.00, 1.00, 0.00, 512.0, 344.8)"></path><image xlink:href="../../6C08C34F-E845-4D58-9B43-921998E7B34D/assets/387D4007C4CDEA185F590557C654DAD2.png" width="128.00" height="128.00" transform="matrix(1.27, 0.00, -0.00, -1.27, 682.0, 507.7)"></image><path d="M 410.0 258.0 L 615.0 258.0 L 615.0 108.0 L 410.0 108.0 Z M 409.5 258.2 " fill="#FEFFFF"></path><path d="M 0.5 0.2 L 205.5 0.2 L 205.5 150.2 L 0.5 150.2 Z M 0.0 0.0 " fill="none" stroke="#85878C" stroke-width="2.00" transform="matrix(1.00, 0.00, 0.00, -1.00, 409.5, 258.2)"></path><g><clipPath id="clip0x6180006a5460"><path d="M 404.7 109.2 L 619.3 109.2 L 619.3 257.2 L 404.7 257.2 Z M 404.7 109.2 "></path></clipPath><g clip-path="url(#clip0x6180006a5460)"><text xml:space="preserve" font-family="Helvetica-Light,Helvetica" font-size="39.0" fill="#000000" transform="matrix(1.00, 0.00, -0.00, -1.00, 418.8, 168.2)">n</text><text xml:space="preserve" font-family="Helvetica-Light,Helvetica" font-size="39.0" fill="#000000" transform="matrix(1.00, 0.00, -0.00, -1.00, 440.5, 168.2)">g</text><text xml:space="preserve" font-family="Helvetica-Light,Helvetica" font-size="39.0" fill="#000000" transform="matrix(1.00, 0.00, -0.00, -1.00, 464.3, 168.2)">-</text><text xml:space="preserve" font-family="Helvetica-Light,Helvetica" font-size="39.0" fill="#000000" transform="matrix(1.00, 0.00, -0.00, -1.00, 477.3, 168.2)">m</text><text xml:space="preserve" font-family="Helvetica-Light,Helvetica" font-size="39.0" fill="#000000" transform="matrix(1.00, 0.00, -0.00, -1.00, 509.8, 168.2)">o</text><text xml:space="preserve" font-family="Helvetica-Light,Helvetica" font-size="39.0" fill="#000000" transform="matrix(1.00, 0.00, -0.00, -1.00, 531.5, 168.2)">d</text><text xml:space="preserve" font-family="Helvetica-Light,Helvetica" font-size="39.0" fill="#000000" transform="matrix(1.00, 0.00, -0.00, -1.00, 555.3, 168.2)">e</text><text xml:space="preserve" font-family="Helvetica-Light,Helvetica" font-size="39.0" fill="#000000" transform="matrix(1.00, 0.00, -0.00, -1.00, 577.0, 168.2)">l</text><text xml:space="preserve" font-family="Helvetica-Light,Helvetica" font-size="39.0" fill="#000000" transform="matrix(1.00, 0.00, -0.00, -1.00, 585.7, 168.2)">?</text></g></g></g></svg>